<svg height="464pt" viewBox="-64 0 464 464" width="464pt" xmlns="http://www.w3.org/2000/svg"><path d="m320 24h-104c-4.417969 0-8 3.582031-8 8v40h-80v-40c0-4.417969-3.582031-8-8-8h-104c-8.835938 0-16 7.164062-16 16v408c0 8.835938 7.164062 16 16 16h304c8.835938 0 16-7.164062 16-16v-408c0-8.835938-7.164062-16-16-16zm0 0" fill="#ffc473"/><path d="m301.65625 114.34375-56-56c-1.5-1.5-3.535156-2.34375-5.65625-2.34375h-24c-4.417969 0-8 3.582031-8 8v8h-80v-8c0-4.417969-3.582031-8-8-8h-72c-8.835938 0-16 7.164062-16 16v344c0 8.835938 7.164062 16 16 16h240c8.835938 0 16-7.164062 16-16v-296c0-2.121094-.84375-4.15625-2.34375-5.65625zm0 0" fill="#f5f5f5"/><path d="m301.65625 114.34375-56-56c-2.289062-2.285156-5.730469-2.972656-8.71875-1.734375s-4.9375 4.15625-4.9375 7.390625v47.519531c.007812 9.097657 7.382812 16.472657 16.480469 16.480469h47.519531c3.234375 0 6.152344-1.949219 7.390625-4.9375s.550781-6.429688-1.734375-8.71875zm0 0" fill="#d8d8da"/><path d="m237.65625 167.03125c-9.371094-9.367188-24.5625-9.367188-33.9375 0l-51.71875 51.710938-19.71875-19.710938c-9.417969-9.09375-24.386719-8.964844-33.644531.292969-9.257813 9.257812-9.386719 24.226562-.292969 33.644531l36.6875 36.6875c9.371094 9.367188 24.566406 9.367188 33.9375 0l68.6875-68.6875c9.367188-9.371094 9.367188-24.566406 0-33.9375zm0 0" fill="#009ae5"/><path d="m208 322.34375h-80c-4.417969 0-8-3.582031-8-8s3.582031-8 8-8h80c4.417969 0 8 3.582031 8 8s-3.582031 8-8 8zm0 0" fill="#00acea"/><path d="m208 354.34375h-80c-4.417969 0-8-3.582031-8-8s3.582031-8 8-8h80c4.417969 0 8 3.582031 8 8s-3.582031 8-8 8zm0 0" fill="#00acea"/><path d="m200 0h-64c-13.253906 0-24 10.746094-24 24v48c0 8.835938 7.164062 16 16 16h80c8.835938 0 16-7.164062 16-16v-48c0-13.253906-10.746094-24-24-24zm0 0" fill="#ffa91f"/></svg>