<svg height="512pt" viewBox="0 -72 512 512" width="512pt" xmlns="http://www.w3.org/2000/svg"><path d="m259.785156 65.398438 32.839844 66.542968c.617188 1.246094 1.804688 2.109375 3.183594 2.308594l73.429687 10.671875c3.464844.503906 4.851563 4.761719 2.34375 7.207031l-53.136719 51.792969c-.996093.972656-1.449218 2.371094-1.214843 3.742187l12.542969 73.136719c.59375 3.449219-3.03125 6.082031-6.128907 4.453125l-65.679687-34.53125c-1.230469-.644531-2.699219-.644531-3.933594 0l-65.679688 34.53125c-3.097656 1.628906-6.71875-1.003906-6.128906-4.453125l12.542969-73.136719c.238281-1.371093-.21875-2.769531-1.214844-3.742187l-53.136719-51.792969c-2.507812-2.445312-1.121093-6.703125 2.34375-7.207031l73.433594-10.671875c1.375-.199219 2.566406-1.0625 3.179688-2.308594l32.839844-66.542968c1.546874-3.140626 6.027343-3.140626 7.574218 0zm0 0" fill="#f7c22c"/><path d="m318.445312 203.925781c-1 .972657-1.453124 2.363281-1.214843 3.734375l12.542969 73.144532c.597656 3.445312-3.035157 6.078124-6.128907 4.445312l-12.355469-6.496094-13.304687-77.570312c-.269531-1.558594.246094-3.136719 1.371094-4.226563l55.515625-54.113281 14.367187 2.082031c3.464844.507813 4.847657 4.757813 2.34375 7.203125zm0 0" fill="#eeb900"/><path d="m217.796875 359.382812c-.714844 0-1.441406-.101562-2.160156-.308593-38.792969-11.253907-73.125-33.570313-99.289063-64.539063-26.785156-31.707031-43.082031-70.386718-47.128906-111.851562-3.320312-34.078125 1.988281-68.632813 15.359375-99.925782 1.679687-3.925781 6.21875-5.753906 10.152344-4.074218 3.929687 1.679687 5.753906 6.226562 4.074219 10.152344-12.351563 28.914062-17.253907 60.84375-14.183594 92.34375 3.738281 38.324218 18.796875 74.070312 43.550781 103.371093 24.1875 28.632813 55.921875 49.261719 91.777344 59.660157 4.101562 1.191406 6.464843 5.484374 5.273437 9.585937-.980468 3.386719-4.070312 5.585937-7.425781 5.585937zm0 0" fill="#00b972"/><path d="m99.328125 291.964844c3.902344-3.070313 7.203125-6.941406 9.65625-11.261719.207031-.363281 2.183594-5.097656 2.398437-5.109375-.214843.011719-2.667968-4.5-2.910156-4.839844-2.878906-4.042968-6.5625-7.558594-10.757812-10.214844-24.011719-15.195312-52.210938-3.023437-66.269532 19.15625 16.253907 20.621094 45.550782 29.839844 67.882813 12.269532zm0 0" fill="#00b972"/><path d="m31.445312 279.691406c16.253907 20.625 45.546876 29.847656 67.878907 12.273438 2.28125-1.796875 4.371093-3.871094 6.191406-6.148438-22.933594 12.394532-50.054687 3.992188-67.570313-14.605468-2.394531 2.613281-4.578124 5.453124-6.5 8.480468zm0 0" fill="#009b5e"/><path d="m62.628906 217.703125c4.550782-1.992187 8.71875-4.914063 12.175782-8.476563.289062-.300781 3.394531-4.390624 3.601562-4.347656-.207031-.042968-1.449219-5.023437-1.597656-5.414062-1.773438-4.636719-4.457032-8.960938-7.851563-12.585938-19.429687-20.734375-49.78125-16.03125-68.957031 1.910156 10.558594 24.042969 36.605469 40.320313 62.628906 28.914063zm0 0" fill="#00b972"/><path d="m.00390625 188.785156c10.55468775 24.042969 36.59765575 40.324219 62.62499975 28.917969 2.660156-1.167969 5.199219-2.652344 7.535156-4.398437-25.3125 6.242187-49.453124-8.695313-61.742187-31.09375-2.972656 1.925781-5.800781 4.128906-8.41796875 6.574218zm0 0" fill="#009b5e"/><path d="m162.273438 348.449219c2.601562-4.230469 4.367187-9.003907 5.175781-13.90625.066406-.410157.289062-5.539063.484375-5.621094-.195313.082031-4.054688-3.304687-4.398438-3.539063-4.097656-2.804687-8.769531-4.832031-13.625-5.875-27.777344-5.972656-50.042968 15.183594-55.585937 40.851563 22.375 13.746094 53.054687 12.285156 67.949219-11.910156zm0 0" fill="#00b972"/><path d="m94.324219 360.359375c22.375 13.746094 53.054687 12.289063 67.945312-11.910156 1.519531-2.476563 2.761719-5.140625 3.6875-7.910157-17.246093 19.550782-45.601562 21.027344-68.457031 9.617188-1.347656 3.277344-2.414062 6.699219-3.175781 10.203125zm0 0" fill="#009b5e"/><path d="m56.425781 144.269531c4.964844.164063 9.984375-.675781 14.640625-2.402343.390625-.144532 4.953125-2.496094 5.125-2.367188-.171875-.128906.855469-5.160156.886719-5.578125.402344-4.945313-.15625-10.007813-1.65625-14.738281-8.597656-27.085938-38.011719-35.921875-63.050781-28-.832032 26.25 15.65625 52.160156 44.054687 53.085937zm0 0" fill="#00b972"/><path d="m12.375 91.1875c-.835938 26.246094 15.648438 52.15625 44.046875 53.082031 2.90625.09375 5.835937-.152343 8.695313-.722656-25.53125-5.273437-40.875-29.160156-42.3125-54.667969-3.511719.457032-7.011719 1.230469-10.429688 2.308594zm0 0" fill="#009b5e"/><path d="m79.933594 72.136719c1.644531 4.683593 4.242187 9.0625 7.535156 12.777343.277344.3125 4.121094 3.714844 4.0625 3.921876.058594-.207032 5.121094-1.070313 5.519531-1.1875 4.757813-1.417969 9.273438-3.769532 13.144531-6.882813 22.136719-17.8125 19.730469-48.433594 3.289063-68.90625-24.773437 8.71875-42.964844 33.464844-33.550781 60.277344zm0 0" fill="#00b972"/><path d="m113.480469 11.863281c-24.769531 8.714844-42.964844 33.457031-33.550781 60.269531.964843 2.742188 2.253906 5.386719 3.820312 7.847657-4.320312-25.710938 12.394531-48.660157 35.652344-59.226563-1.691406-3.113281-3.679688-6.09375-5.921875-8.890625zm0 0" fill="#009b5e"/><path d="m294.203125 359.382812c-3.351563 0-6.441406-2.199218-7.425781-5.585937-1.191406-4.101563 1.171875-8.394531 5.273437-9.582031 35.855469-10.402344 67.589844-31.03125 91.777344-59.664063 24.753906-29.300781 39.8125-65.042969 43.550781-103.367187 3.070313-31.503906-1.832031-63.433594-14.183594-92.34375-1.679687-3.929688.144532-8.476563 4.074219-10.15625 3.929688-1.679688 8.472657.148437 10.152344 4.074218 13.371094 31.292969 18.679687 65.847657 15.359375 99.925782-4.046875 41.464844-20.34375 80.144531-47.128906 111.851562-26.164063 30.96875-60.496094 53.289063-99.289063 64.539063-.71875.207031-1.445312.308593-2.160156.308593zm0 0" fill="#00b972"/><path d="m412.671875 291.964844c-3.902344-3.070313-7.203125-6.941406-9.65625-11.261719-.207031-.363281-2.183594-5.097656-2.398437-5.109375.214843.011719 2.667968-4.5 2.910156-4.839844 2.878906-4.042968 6.5625-7.558594 10.757812-10.214844 24.011719-15.195312 52.210938-3.023437 66.269532 19.15625-16.253907 20.621094-45.550782 29.839844-67.882813 12.269532zm0 0" fill="#00b972"/><path d="m480.554688 279.691406c-16.253907 20.625-45.546876 29.847656-67.878907 12.273438-2.28125-1.796875-4.371093-3.871094-6.191406-6.148438 22.933594 12.394532 50.054687 3.992188 67.570313-14.605468 2.394531 2.613281 4.578124 5.453124 6.5 8.480468zm0 0" fill="#009b5e"/><path d="m449.371094 217.703125c-4.550782-1.992187-8.71875-4.914063-12.175782-8.476563-.289062-.300781-3.394531-4.390624-3.601562-4.347656.207031-.042968 1.449219-5.023437 1.597656-5.414062 1.773438-4.636719 4.457032-8.960938 7.851563-12.585938 19.429687-20.734375 49.78125-16.03125 68.957031 1.910156-10.558594 24.042969-36.605469 40.320313-62.628906 28.914063zm0 0" fill="#00b972"/><path d="m511.996094 188.785156c-10.554688 24.042969-36.597656 40.324219-62.625 28.917969-2.660156-1.167969-5.199219-2.652344-7.535156-4.398437 25.3125 6.242187 49.453124-8.695313 61.742187-31.09375 2.972656 1.925781 5.800781 4.128906 8.417969 6.574218zm0 0" fill="#009b5e"/><path d="m349.726562 348.449219c-2.601562-4.230469-4.367187-9.003907-5.175781-13.90625-.066406-.410157-.289062-5.539063-.484375-5.621094.195313.082031 4.054688-3.304687 4.398438-3.539063 4.101562-2.804687 8.769531-4.832031 13.625-5.875 27.777344-5.972656 50.046875 15.183594 55.585937 40.851563-22.375 13.746094-53.054687 12.285156-67.949219-11.910156zm0 0" fill="#00b972"/><path d="m417.675781 360.359375c-22.375 13.746094-53.054687 12.289063-67.945312-11.910156-1.519531-2.476563-2.761719-5.140625-3.6875-7.910157 17.246093 19.550782 45.601562 21.027344 68.457031 9.617188 1.347656 3.277344 2.414062 6.699219 3.175781 10.203125zm0 0" fill="#009b5e"/><path d="m455.574219 144.269531c-4.964844.164063-9.984375-.675781-14.640625-2.402343-.390625-.144532-4.953125-2.496094-5.125-2.367188.171875-.128906-.855469-5.160156-.890625-5.578125-.398438-4.945313.160156-10.007813 1.660156-14.738281 8.597656-27.085938 38.011719-35.921875 63.046875-28 .835938 26.25-15.652344 52.160156-44.050781 53.085937zm0 0" fill="#00b972"/><path d="m499.625 91.1875c.835938 26.246094-15.648438 52.15625-44.046875 53.082031-2.90625.09375-5.835937-.152343-8.695313-.722656 25.53125-5.273437 40.875-29.160156 42.3125-54.667969 3.511719.457032 7.011719 1.230469 10.429688 2.308594zm0 0" fill="#009b5e"/><g fill="#f7c22c"><path d="m234.867188 36.128906c-3.769532 0-7.074219-2.765625-7.640626-6.609375l-3.042968-20.65625c-.621094-4.226562 2.300781-8.15625 6.527344-8.7812498 4.226562-.6210932 8.160156 2.3007808 8.78125 6.5273438l3.039062 20.65625c.625 4.226563-2.300781 8.160156-6.527344 8.78125-.378906.054687-.761718.082031-1.136718.082031zm0 0"/><path d="m198.367188 55.898438c-2.589844 0-5.121094-1.304688-6.585938-3.667969l-10.449219-16.886719c-2.25-3.632812-1.128906-8.398438 2.507813-10.648438 3.628906-2.246093 8.398437-1.125 10.648437 2.507813l10.449219 16.882813c2.25 3.632812 1.128906 8.402343-2.503906 10.652343-1.269532.785157-2.675782 1.160157-4.066406 1.160157zm0 0"/><path d="m278.328125 36.128906c-.375 0-.753906-.023437-1.136719-.082031-4.226562-.621094-7.148437-4.554687-6.527344-8.78125l3.042969-20.65625c.621094-4.226563 4.558594-7.148437 8.777344-6.5273438 4.230469.6249998 7.152344 4.5546878 6.527344 8.7812498l-3.039063 20.65625c-.566406 3.84375-3.871094 6.609375-7.644531 6.609375zm0 0"/><path d="m314.832031 55.898438c-1.390625 0-2.796875-.375-4.066406-1.160157-3.632813-2.25-4.753906-7.019531-2.503906-10.652343l10.449219-16.882813c2.25-3.632813 7.019531-4.753906 10.648437-2.507813 3.632813 2.25 4.757813 7.019532 2.507813 10.652344l-10.453126 16.882813c-1.460937 2.363281-3.992187 3.667969-6.582031 3.667969zm0 0"/></g><path d="m430.066406 72.136719c-1.644531 4.683593-4.242187 9.0625-7.535156 12.777343-.277344.3125-4.121094 3.714844-4.0625 3.921876-.058594-.207032-5.121094-1.070313-5.519531-1.1875-4.757813-1.417969-9.273438-3.769532-13.144531-6.882813-22.136719-17.8125-19.730469-48.433594-3.289063-68.90625 24.769531 8.71875 42.964844 33.464844 33.550781 60.277344zm0 0" fill="#00b972"/><path d="m396.519531 11.863281c24.769531 8.714844 42.960938 33.457031 33.546875 60.269531-.960937 2.742188-2.25 5.386719-3.816406 7.847657 4.320312-25.710938-12.394531-48.660157-35.65625-59.226563 1.695312-3.113281 3.683594-6.09375 5.925781-8.890625zm0 0" fill="#009b5e"/></svg>