<?xml version="1.0"?>
<svg xmlns="http://www.w3.org/2000/svg" xmlns:xlink="http://www.w3.org/1999/xlink" version="1.1" id="Layer_1" x="0px" y="0px" viewBox="0 0 512 512" style="enable-background:new 0 0 512 512;" xml:space="preserve" width="512px" height="512px" class=""><g><circle style="fill:#4EFFD6" cx="256" cy="256" r="256" data-original="#FFC400" class="active-path" data-old_color="#50FFD7"/><path style="fill:#4CB6AC;" d="M388.231,361.486c-4.138-10.757-13.019-18.991-24.055-22.3l-61.631-13.368H256h-46.545  l-61.631,13.368c-11.036,3.309-19.917,11.543-24.055,22.3l-16.714,43.459H256h148.945L388.231,361.486z" data-original="#4CB6AC" class=""/><path style="fill:#F8E0C2;" d="M325.818,210.33c-0.68,0-1.462,0-2.295,0c-3.84,3.333-3.691,16.412-11.669,36.361  c0-1.052,0-27.927-4.655-41.593c-7.601-22.309-29.752-23.021-61.575-23.021c-13.503,0-24.418-1.69-33.243-4.524  c-16.873,23.324-16.891,64.484-16.891,64.484s-5.083-15.29-7.638-32.582c-0.586,0-1.173,0-1.671,0  c-4.655,0-9.309,5.171-9.309,10.347c0,14.383,4.022,33.182,19.447,35.849c11.366,42.366,38.251,58.368,59.681,65.513  c21.271-7.084,47.923-22.914,59.429-64.582c15.639-2.499,19.698-21.443,19.698-35.91C335.127,215.501,330.473,210.33,325.818,210.33  z" data-original="#F8E0C2"/><path style="fill:#FCF1E3;" d="M245.625,182.077c-13.503,0-24.418-1.69-33.243-4.524c-16.873,23.324-16.891,64.484-16.891,64.484  s-5.083-15.29-7.638-32.582c-0.586,0-1.173,0-1.671,0c-4.655,0-9.309,5.171-9.309,10.347c0,14.383,4.022,33.182,19.447,35.849  c11.366,42.366,38.251,58.368,59.681,65.513V182.137C252.663,182.09,249.214,182.077,245.625,182.077z" data-original="#FCF1E3"/><g>
	<circle style="fill:#FFFFFF;" cx="324.096" cy="258.928" r="7.582" data-original="#FFFFFF"/>
	<circle style="fill:#FFFFFF;" cx="187.904" cy="258.932" r="7.582" data-original="#FFFFFF"/>
</g><path style="fill:#E57373;" d="M232.727,269.964h46.545c0,0,0,13.964-23.273,13.964S232.727,269.964,232.727,269.964z" data-original="#E57373"/><path style="fill:#212121;" d="M302.252,141.238c-12.316-9.868-28.486-15.565-46.252-15.565c-23.813,0-55.855,18.618-69.818-13.964  c-7.792,10.789-12.935,38.167,6.87,55.422c-16.226,18.856,2.439,74.906,2.439,74.906s0.019-41.16,16.887-64.484  c8.825,2.835,19.74,4.524,33.243,4.524c31.828,0,53.979,0.712,61.575,23.021c4.659,13.666,4.659,40.541,4.659,41.593  c9.309-23.273,7.536-36.366,13.964-36.366C325.818,190.622,329.016,162.686,302.252,141.238z" data-original="#212121" class=""/><path style="fill:#F8E0C2;" d="M209.455,285.943v39.875L256,372.364v-51.2C240.714,316.067,222.678,306.404,209.455,285.943z" data-original="#F8E0C2"/><path style="fill:#F4D0A1;" d="M256,321.164v51.2l46.545-46.545v-39.875C289.322,306.404,271.286,316.067,256,321.164z" data-original="#F4D0A1" class=""/><g>
	<polygon style="fill:#B3E0DB;" points="302.545,325.818 256,372.364 256,386.327 314.019,328.308  " data-original="#B3E0DB"/>
	<polygon style="fill:#B3E0DB;" points="209.455,325.818 256,372.364 256,386.327 197.981,328.308  " data-original="#B3E0DB"/>
</g><path style="fill:#FFFFFF;" d="M363.055,395.636c0,2.56-2.095,4.655-4.655,4.655h-51.2c-2.56,0-4.655-2.095-4.655-4.655v-32.582  c0-2.555,2.095-4.655,4.655-4.655h51.2c2.56,0,4.655,2.099,4.655,4.655V395.636z" data-original="#FFFFFF"/><rect x="307.2" y="372.364" style="fill:#BBDEFB;" width="18.618" height="23.273" data-original="#BBDEFB"/><g>
	<path style="fill:#B3E0DB;" d="M358.4,358.4h-18.618v-2.327c0-3.84-3.142-6.982-6.982-6.982s-6.982,3.142-6.982,6.982v2.327H307.2   c-2.56,0-4.655,2.099-4.655,4.655v4.655h60.509v-4.655C363.055,360.499,360.96,358.4,358.4,358.4z" data-original="#B3E0DB"/>
	<rect x="144.291" y="381.673" style="fill:#B3E0DB;" width="51.2" height="9.309" data-original="#B3E0DB"/>
</g><rect x="153.6" y="367.709" style="fill:#D32F2F;" width="13.964" height="13.964" data-original="#D32F2F"/><path style="fill:#EF5451;" d="M167.564,367.709H153.6v-2.327c0-3.84,3.142-6.982,6.982-6.982c3.84,0,6.982,3.142,6.982,6.982  V367.709z" data-original="#EF5451" class=""/><rect x="172.218" y="372.364" style="fill:#1565C0;" width="13.964" height="9.309" data-original="#1565C0" class=""/><path style="fill:#90CAF9" d="M186.182,372.364h-13.964v-2.327c0-3.84,3.142-6.982,6.982-6.982c3.84,0,6.982,3.142,6.982,6.982  V372.364z" data-original="#90CAF9" class=""/><g>
	<path style="fill:#212121;" d="M227.905,218.145c6.661,0,12.227,1.289,13.773,5.274c0.019-4.655-4.669-11.385-13.773-11.385   c-9.09,0-14.206,6.73-13.768,11.385C215.678,219.434,221.249,218.145,227.905,218.145z" data-original="#212121" class=""/>
	<path style="fill:#212121;" d="M283.401,218.145c6.661,0,12.227,1.289,13.768,5.274c0.023-4.655-4.669-11.385-13.768-11.385   c-9.09,0-14.21,6.73-13.768,11.385C271.174,219.434,276.745,218.145,283.401,218.145z" data-original="#212121" class=""/>
</g></g> </svg>
