<?xml version="1.0" encoding="iso-8859-1"?>
<!-- Generator: Adobe Illustrator 19.0.0, SVG Export Plug-In . SVG Version: 6.00 Build 0)  -->
<svg version="1.1" id="Layer_1" xmlns="http://www.w3.org/2000/svg" xmlns:xlink="http://www.w3.org/1999/xlink" x="0px" y="0px"
	 viewBox="0 0 512 512" style="enable-background:new 0 0 512 512;" xml:space="preserve">
<circle style="fill:#00B0FF;" cx="256" cy="256" r="256"/>
<path style="fill:#2962FF;" d="M346.936,335.434c-2.248,4.627-7.824,6.544-12.446,4.301l-200.858-97.829
	c-4.622-2.248-6.544-7.824-4.296-12.442l57.069-117.174c2.248-4.617,7.824-6.544,12.446-4.291l200.858,97.829
	c4.622,2.248,6.544,7.82,4.296,12.442L346.936,335.434z"/>
<path style="fill:#2979FF;" d="M198.851,107.999c-4.622-2.253-10.193-0.326-12.446,4.291l-57.069,117.174
	c-2.248,4.617-0.326,10.189,4.292,12.442l40.374,19.67L285.412,150.16L198.851,107.999z"/>
<path style="fill:#E8EAF6;" d="M230.4,196.585c-5.734-2.797-9.616-7.824-11.176-13.489c4.622-1.95,8.578-5.469,10.934-10.296
	c2.355-4.831,2.676-10.119,1.368-14.955c5.423-2.271,11.771-2.318,17.515,0.484c10.57,5.143,14.96,17.878,9.812,28.444
	C253.701,197.343,240.97,201.737,230.4,196.585z"/>
<path style="fill:#C5CAE9;" d="M219.224,183.096c-1.313-4.841-0.987-10.124,1.368-14.96c2.351-4.827,6.307-8.336,10.934-10.291
	c1.308,4.836,0.987,10.124-1.368,14.955C227.798,177.627,223.846,181.146,219.224,183.096z"/>
<path style="fill:#448AFF;" d="M201.709,182.607c-10.57-5.143-14.964-17.878-9.812-28.444c5.153-10.566,17.878-14.964,28.444-9.807
	c5.739,2.793,9.621,7.82,11.18,13.489c-4.622,1.955-8.583,5.464-10.934,10.291c-2.355,4.836-2.681,10.119-1.368,14.96
	C213.802,185.363,207.444,185.409,201.709,182.607z"/>
<path style="fill:#00B0FF;" d="M354.332,245.848c-2.253,4.622-7.824,6.54-12.446,4.296l-25.111-12.227
	c-4.622-2.253-6.544-7.829-4.296-12.451l10.189-20.922c2.253-4.617,7.829-6.544,12.446-4.291l25.111,12.227
	c4.622,2.253,6.544,7.82,4.291,12.446L354.332,245.848z"/>
<g>
	<path style="fill:#C5CAE9;" d="M172.009,203.362l0.019-0.037c1.88-3.738,6.223-5.385,10.198-3.384
		c2.029,1.024,3.063,2.299,3.761,3.756c0.149,0.307,0.195,0.735-0.014,1.15c-0.317,0.642-1.071,0.87-1.708,0.549
		c-0.321-0.163-0.489-0.391-0.582-0.577c-0.535-1.187-1.28-2.132-2.537-2.765c-2.499-1.261-5.381-0.121-6.679,2.448l-0.019,0.037
		c-1.294,2.574-0.526,5.571,1.987,6.847c1.392,0.698,2.555,0.717,3.919,0.396c0.247-0.065,0.545-0.056,0.829,0.088
		c0.582,0.293,0.847,1.043,0.554,1.62c-0.182,0.358-0.489,0.554-0.791,0.638c-1.792,0.47-3.542,0.438-5.665-0.638
		C171.455,211.558,170.11,207.137,172.009,203.362z"/>
	<path style="fill:#C5CAE9;" d="M189.198,205.205c0.326-0.661,1.089-0.908,1.745-0.577l4.696,2.365
		c1.648,0.838,2.704,1.978,3.133,3.226c0.335,1.066,0.237,2.234-0.344,3.384l-0.019,0.042c-1.061,2.099-2.923,2.765-4.962,2.42
		l0.917,4.44c0.084,0.391,0.107,0.712-0.07,1.066c-0.321,0.642-1.085,0.796-1.648,0.512c-0.521-0.265-0.735-0.68-0.819-1.168
		l-1.14-5.688l-2.909-1.462L186,217.293c-0.321,0.638-1.085,0.889-1.727,0.568c-0.656-0.33-0.903-1.094-0.582-1.731L189.198,205.205
		z M192.186,213.42c1.648,0.838,3.142,0.498,3.812-0.833l0.019-0.037c0.707-1.41,0.084-2.686-1.629-3.551l-3.356-1.694l-2.23,4.413
		L192.186,213.42z"/>
	<path style="fill:#C5CAE9;" d="M197.329,222.864l5.455-10.808c0.326-0.666,1.089-0.908,1.745-0.582l7.643,3.854
		c0.559,0.284,0.796,0.991,0.512,1.555c-0.293,0.582-0.991,0.796-1.555,0.507l-6.498-3.272l-1.722,3.412l5.655,2.849
		c0.559,0.284,0.791,0.991,0.498,1.573c-0.289,0.563-0.982,0.777-1.545,0.489l-5.651-2.849l-1.778,3.528l6.586,3.323
		c0.563,0.289,0.796,1.001,0.512,1.555c-0.293,0.586-0.991,0.801-1.555,0.512l-7.736-3.901
		C197.246,224.284,196.999,223.516,197.329,222.864z"/>
	<path style="fill:#C5CAE9;" d="M215.366,218.401c0.33-0.656,1.089-0.908,1.75-0.573l3.738,1.876
		c4.133,2.085,5.548,6.353,3.686,10.054l-0.019,0.037c-1.862,3.7-6.163,5.134-10.291,3.053l-3.738-1.89
		c-0.661-0.33-0.908-1.089-0.582-1.75L215.366,218.401z M215.282,230.74c2.765,1.392,5.502,0.442,6.8-2.127l0.019-0.042
		c1.294-2.569,0.451-5.371-2.309-6.763L217.2,220.5l-4.51,8.937L215.282,230.74z"/>
	<path style="fill:#C5CAE9;" d="M230.242,225.759c0.321-0.642,1.085-0.889,1.741-0.559c0.638,0.321,0.889,1.085,0.568,1.722
		l-5.567,11.031c-0.317,0.647-1.08,0.894-1.718,0.573c-0.661-0.33-0.908-1.089-0.591-1.736L230.242,225.759z"/>
	<path style="fill:#C5CAE9;" d="M238.746,231.415l-3.193-1.61c-0.605-0.303-0.829-1.029-0.531-1.61
		c0.293-0.577,1.005-0.833,1.61-0.531l8.727,4.399c0.582,0.293,0.805,1.019,0.512,1.601c-0.293,0.586-1.01,0.838-1.592,0.545
		l-3.207-1.624l-5.018,9.951c-0.317,0.638-1.103,0.875-1.741,0.559c-0.642-0.321-0.903-1.094-0.586-1.731L238.746,231.415z"/>
	<path style="fill:#C5CAE9;" d="M250.489,242.935l0.019-0.037c1.88-3.738,6.218-5.381,10.198-3.379
		c2.029,1.024,3.058,2.295,3.756,3.756c0.154,0.303,0.2,0.731-0.009,1.15c-0.321,0.638-1.075,0.87-1.713,0.545
		c-0.321-0.163-0.484-0.382-0.582-0.573c-0.531-1.192-1.275-2.132-2.537-2.765c-2.495-1.261-5.376-0.121-6.679,2.444l-0.019,0.042
		c-1.294,2.569-0.526,5.571,1.992,6.842c1.392,0.698,2.555,0.721,3.919,0.4c0.247-0.065,0.545-0.056,0.828,0.088
		c0.582,0.293,0.842,1.038,0.545,1.62c-0.177,0.358-0.489,0.554-0.791,0.638c-1.783,0.465-3.537,0.433-5.655-0.642
		C249.935,251.136,248.585,246.71,250.489,242.935z"/>
	<path style="fill:#C5CAE9;" d="M261.646,254.874l10.375-8.425c0.554-0.451,1.201-0.573,1.857-0.242l0.112,0.061
		c0.656,0.33,0.926,0.912,0.898,1.629l-0.614,13.349c0.009,0.214-0.042,0.41-0.112,0.554c-0.316,0.619-1.029,0.875-1.648,0.554
		c-0.545-0.275-0.763-0.782-0.721-1.373l0.168-2.998l-6.381-3.221l-2.383,1.978c-0.428,0.372-0.954,0.442-1.443,0.191
		c-0.6-0.298-0.833-1.01-0.531-1.61C261.315,255.153,261.455,255.013,261.646,254.874z M272.119,255.493l0.363-6.474l-4.98,4.147
		L272.119,255.493z"/>
	<path style="fill:#C5CAE9;" d="M282.2,252.099c0.326-0.656,1.089-0.908,1.745-0.577l4.696,2.369c1.648,0.833,2.7,1.974,3.133,3.226
		c0.33,1.066,0.233,2.234-0.344,3.384l-0.019,0.037c-1.066,2.104-2.923,2.765-4.962,2.42l0.917,4.44
		c0.084,0.396,0.107,0.712-0.074,1.071c-0.317,0.638-1.08,0.796-1.648,0.507c-0.526-0.265-0.74-0.68-0.819-1.168l-1.145-5.683
		l-2.909-1.466l-1.778,3.533c-0.321,0.638-1.08,0.889-1.722,0.563c-0.656-0.326-0.903-1.089-0.582-1.727L282.2,252.099z
		 M285.189,260.319c1.648,0.833,3.142,0.498,3.812-0.838l0.019-0.037c0.707-1.41,0.084-2.681-1.629-3.551l-3.361-1.685l-2.225,4.403
		L285.189,260.319z"/>
	<path style="fill:#C5CAE9;" d="M295.778,258.951c0.33-0.661,1.089-0.908,1.75-0.577l3.738,1.88
		c4.129,2.081,5.553,6.363,3.691,10.054l-0.019,0.037c-1.866,3.7-6.172,5.139-10.301,3.049l-3.738-1.885
		c-0.656-0.326-0.903-1.089-0.573-1.75L295.778,258.951z M295.694,271.29c2.76,1.392,5.506,0.447,6.796-2.127l0.023-0.037
		c1.294-2.574,0.451-5.376-2.313-6.763l-2.593-1.313l-4.506,8.937L295.694,271.29z"/>
</g>
<path style="fill:#FFFFFF;" d="M349.091,377.018c0,5.139-4.171,9.309-9.309,9.309H116.364c-5.139,0-9.309-4.171-9.309-9.309V246.691
	c0-5.139,4.17-9.309,9.309-9.309h223.418c5.139,0,9.309,4.17,9.309,9.309V377.018z"/>
<rect x="107.055" y="274.618" style="fill:#1A3B7E;" width="242.036" height="37.236"/>
<path style="fill:#448AFF;" d="M166.609,373.411c-4.357,0-8.239-1.927-10.882-4.938c2.243-2.574,3.626-5.916,3.626-9.579
	c0-3.668-1.382-7.005-3.626-9.579c2.644-3.007,6.526-4.938,10.882-4.938c8.02,0,14.513,6.498,14.513,14.513
	C181.122,366.913,174.629,373.411,166.609,373.411z"/>
<path style="fill:#2979FF;" d="M155.727,368.472c-2.253-2.574-3.631-5.916-3.631-9.579c0-3.668,1.378-7.005,3.631-9.579
	c2.243,2.574,3.626,5.911,3.626,9.579C159.353,362.561,157.971,365.898,155.727,368.472z"/>
<path style="fill:#2962FF;" d="M144.84,373.411c-8.02,0-14.513-6.498-14.513-14.513c0-8.015,6.498-14.513,14.513-14.513
	c4.357,0,8.239,1.927,10.887,4.938c-2.253,2.574-3.631,5.911-3.631,9.579c0,3.663,1.378,7.005,3.631,9.579
	C153.079,371.484,149.197,373.411,144.84,373.411z"/>
<g>
	<path style="fill:#1A3B7E;" d="M136.266,333.954v-2.365c0-0.344,0.154-0.591,0.586-0.591c0.438,0,0.586,0.247,0.586,0.591v2.946
		c0,0.428-0.284,0.591-0.586,0.591h-4.617c-0.303,0-0.586-0.163-0.586-0.591c0-0.419,0.284-0.582,0.586-0.582h1.722v-6.772h-1.722
		c-0.303,0-0.586-0.163-0.586-0.586c0-0.419,0.284-0.586,0.586-0.586h2.895v7.945H136.266z"/>
	<path style="fill:#1A3B7E;" d="M141.265,333.954h4.026c0.307,0,0.591,0.163,0.591,0.582c0,0.428-0.284,0.591-0.591,0.591h-5.199
		v-3.817c0-0.88,0.447-1.327,1.322-1.327h3.295v-2.802h-4.031c-0.303,0-0.586-0.163-0.586-0.586c0-0.419,0.284-0.586,0.586-0.586
		h3.891c0.386,0,0.656,0.061,0.95,0.33c0.326,0.303,0.363,0.619,0.363,1.043v2.402c0,0.424-0.037,0.74-0.363,1.047
		c-0.293,0.27-0.563,0.326-0.95,0.326h-3.305C141.265,331.157,141.265,333.954,141.265,333.954z"/>
	<path style="fill:#1A3B7E;" d="M149.113,327.182c-0.303,0-0.586-0.163-0.586-0.586c0-0.419,0.284-0.586,0.586-0.586h4.031
		c0.67,0,1.173,0.507,1.173,1.173v2.248c0,0.47-0.098,0.815-0.461,1.136c0.363,0.33,0.461,0.67,0.461,1.14v2.243
		c0,0.67-0.503,1.173-1.173,1.173h-4.031c-0.303,0-0.586-0.163-0.586-0.591c0-0.419,0.284-0.582,0.586-0.582h4.031v-1.941
		c0-0.656-0.261-0.856-0.586-0.856h-2.295c-0.307,0-0.586-0.163-0.586-0.586c0-0.414,0.279-0.586,0.586-0.586h2.295
		c0.326,0,0.586-0.2,0.586-0.856v-1.946h-4.031V327.182z"/>
	<path style="fill:#1A3B7E;" d="M161.001,330.98v-3.393c0-0.293,0.135-0.582,0.582-0.582s0.586,0.293,0.586,0.582v3.393
		c0.303,0,0.586,0.158,0.586,0.582s-0.284,0.586-0.586,0.586v2.388c0,0.382-0.163,0.591-0.586,0.591
		c-0.419,0-0.582-0.209-0.582-0.591v-2.388h-3.444v-5.553c0-0.293,0.135-0.586,0.582-0.586s0.586,0.293,0.586,0.586v4.385H161.001z"
		/>
	<path style="fill:#1A3B7E;" d="M176.179,329.984h2.155c0.372,0,0.656,0.061,0.936,0.326c0.33,0.307,0.363,0.591,0.363,1.001v2.509
		c0,0.358-0.033,0.619-0.284,0.908c-0.289,0.354-0.596,0.4-1.019,0.4h-2.602c-0.303,0-0.484-0.084-0.777-0.209l-0.447-0.2
		c-0.312-0.14-0.666-0.247-0.666-0.661c0-0.303,0.256-0.586,0.559-0.586c0.14,0,0.251,0.037,0.377,0.098l0.349,0.149
		c0.163,0.074,0.433,0.237,0.624,0.237h2.704v-2.802h-3.454v-5.143h4.04c0.303,0,0.586,0.168,0.586,0.586
		c0,0.424-0.284,0.586-0.586,0.586h-2.867v2.802H176.179z"/>
	<path style="fill:#1A3B7E;" d="M183.454,330.98h3.914c0.586,0,0.703,0.247,0.703,0.782v2.625c0,0.549-0.237,0.735-0.763,0.735
		h-4.264c-0.554,0-0.763-0.2-0.763-0.735v-7.796c0-0.265,0.098-0.586,0.503-0.586h0.703c0.303,0,0.549,0.284,0.549,0.586
		c0,0.354-0.247,0.586-0.586,0.586v3.803H183.454z M183.454,332.148v1.806h3.444v-1.806H183.454z"/>
	<path style="fill:#1A3B7E;" d="M191.893,327.182c0,0.256-0.209,0.586-0.586,0.586c-0.372,0-0.586-0.33-0.586-0.586v-0.586
		c0-0.256,0.214-0.586,0.586-0.586h5.204v3.398c0,0.41,0.009,0.456-0.317,0.745l-1.643,1.41c-0.303,0.275-0.326,0.298-0.326,0.703
		v2.267c0,0.382-0.163,0.591-0.586,0.591c-0.419,0-0.586-0.209-0.586-0.591v-2.816c0-0.391,0.014-0.424,0.303-0.68l1.62-1.392
		c0.386-0.344,0.363-0.326,0.363-0.847v-1.62h-3.444V327.182z"/>
	<path style="fill:#1A3B7E;" d="M203.19,326.009c0.396,0,0.582,0.284,0.582,0.586v3.388c0.363,0,0.647,0.126,0.861,0.326
		c0.209,0.2,0.312,0.489,0.312,0.856v2.793c0,0.717-0.447,1.173-1.173,1.173h-3.44c-0.726,0-1.173-0.456-1.173-1.173v-2.793
		c0-0.363,0.102-0.656,0.312-0.856c0.214-0.2,0.493-0.326,0.861-0.326v-3.388c0-0.303,0.186-0.586,0.586-0.586H203.19z
		 M203.771,333.954v-2.802h-3.44v2.802H203.771z M202.603,329.984v-2.802H201.5v2.802H202.603z"/>
	<path style="fill:#1A3B7E;" d="M220.649,330.184h-4.031c-0.326,0-0.582-0.284-0.582-0.586v-3.002c0-0.303,0.256-0.586,0.582-0.586
		h4.617c0.326,0,0.586,0.284,0.586,0.586v7.941c0,0.317-0.233,0.591-0.586,0.591h-0.586c-0.349,0-0.586-0.275-0.586-0.591
		c0-0.344,0.247-0.582,0.586-0.582V330.184z M220.649,329.011v-1.829h-3.44v1.829H220.649z"/>
	<path style="fill:#1A3B7E;" d="M228.506,326.009c0.396,0,0.586,0.284,0.586,0.586v3.388c0.363,0,0.647,0.126,0.856,0.326
		s0.317,0.489,0.317,0.856v2.793c0,0.717-0.447,1.173-1.173,1.173h-3.444c-0.726,0-1.173-0.456-1.173-1.173v-2.793
		c0-0.363,0.102-0.656,0.317-0.856c0.209-0.2,0.489-0.326,0.856-0.326v-3.388c0-0.303,0.186-0.586,0.586-0.586H228.506z
		 M229.092,333.954v-2.802h-3.444v2.802H229.092z M227.919,329.984v-2.802h-1.103v2.802H227.919z"/>
	<path style="fill:#1A3B7E;" d="M234.082,327.182c0,0.256-0.209,0.586-0.582,0.586c-0.377,0-0.591-0.33-0.591-0.586v-0.586
		c0-0.256,0.214-0.586,0.591-0.586h5.199v3.398c0,0.41,0.014,0.456-0.317,0.745l-1.638,1.41c-0.307,0.275-0.326,0.298-0.326,0.703
		v2.267c0,0.382-0.168,0.591-0.591,0.591c-0.419,0-0.582-0.209-0.582-0.591v-2.816c0-0.391,0.009-0.424,0.303-0.68l1.615-1.392
		c0.391-0.344,0.363-0.326,0.363-0.847v-1.62h-3.444V327.182z"/>
	<path style="fill:#1A3B7E;" d="M242.52,330.98h3.914c0.586,0,0.703,0.247,0.703,0.782v2.625c0,0.549-0.237,0.735-0.763,0.735
		h-4.264c-0.549,0-0.763-0.2-0.763-0.735v-7.796c0-0.265,0.098-0.586,0.503-0.586h0.703c0.303,0,0.549,0.284,0.549,0.586
		c0,0.354-0.247,0.586-0.586,0.586v3.803H242.52z M242.52,332.148v1.806h3.444v-1.806H242.52z"/>
	<path style="fill:#1A3B7E;" d="M260.557,329.984h2.155c0.377,0,0.661,0.061,0.936,0.326c0.33,0.307,0.368,0.591,0.368,1.001v2.509
		c0,0.358-0.037,0.619-0.284,0.908c-0.289,0.354-0.596,0.4-1.019,0.4h-2.602c-0.303,0-0.484-0.084-0.773-0.209l-0.447-0.2
		c-0.316-0.14-0.67-0.247-0.67-0.661c0-0.303,0.256-0.586,0.563-0.586c0.135,0,0.247,0.037,0.372,0.098l0.354,0.149
		c0.163,0.074,0.433,0.237,0.619,0.237h2.709v-2.802h-3.458v-5.143h4.04c0.307,0,0.591,0.168,0.591,0.586
		c0,0.424-0.284,0.586-0.591,0.586h-2.867v2.802H260.557z"/>
	<path style="fill:#1A3B7E;" d="M270.694,330.98v-3.393c0-0.293,0.14-0.582,0.586-0.582c0.447,0,0.586,0.293,0.586,0.582v3.393
		c0.303,0,0.586,0.158,0.586,0.582s-0.284,0.586-0.586,0.586v2.388c0,0.382-0.163,0.591-0.586,0.591
		c-0.424,0-0.586-0.209-0.586-0.591v-2.388h-3.444v-5.553c0-0.293,0.14-0.586,0.586-0.586s0.586,0.293,0.586,0.586v4.385H270.694z"
		/>
	<path style="fill:#1A3B7E;" d="M275.689,327.182c-0.303,0-0.586-0.163-0.586-0.586c0-0.419,0.284-0.586,0.586-0.586h4.026
		c0.675,0,1.173,0.507,1.173,1.173v2.248c0,0.47-0.093,0.815-0.456,1.136c0.363,0.33,0.456,0.67,0.456,1.14v2.243
		c0,0.67-0.498,1.173-1.173,1.173h-4.026c-0.303,0-0.586-0.163-0.586-0.591c0-0.419,0.284-0.582,0.586-0.582h4.026v-1.941
		c0-0.656-0.256-0.856-0.582-0.856h-2.299c-0.303,0-0.582-0.163-0.582-0.586c0-0.414,0.279-0.586,0.582-0.586h2.299
		c0.326,0,0.582-0.2,0.582-0.856v-1.946h-4.026V327.182z"/>
	<path style="fill:#1A3B7E;" d="M284.714,333.954h4.031c0.303,0,0.586,0.163,0.586,0.582c0,0.428-0.284,0.591-0.586,0.591h-5.204
		v-3.817c0-0.88,0.447-1.327,1.322-1.327h3.295v-2.802h-4.031c-0.303,0-0.586-0.163-0.586-0.586c0-0.419,0.284-0.586,0.586-0.586
		h3.891c0.386,0,0.656,0.061,0.95,0.33c0.326,0.303,0.363,0.619,0.363,1.043v2.402c0,0.424-0.037,0.74-0.363,1.047
		c-0.293,0.27-0.563,0.326-0.95,0.326h-3.305V333.954z"/>
</g>
<path style="fill:#0D57A1;" d="M282.368,367.518h-21.481c-1.806,0-3.216-0.517-4.203-1.527c-1.839-1.894-1.75-4.962-1.671-7.661
	c0.037-1.354,0.093-3.212-0.317-3.635c-0.019-0.019-0.065-0.065-0.251-0.065c-1.215,0-1.727,3.063-2.141,5.53
	c-0.582,3.444-1.243,7.363-4.305,7.363c-1.261,0-2.216-0.405-2.83-1.206c-1.345-1.732-0.582-4.696,0.158-7.554
	c0.354-1.378,0.95-3.677,0.638-4.152c-1.094,0.019-1.694,1.983-2.327,4.063c-1.14,3.733-2.695,8.844-8.527,8.844
	c-2.481,0-4.361-1.145-5.576-2.802c-3.077,1.662-6.479,2.802-9.463,2.802c-5.618,0-8.136-3.463-8.136-6.907
	c0-4.389,3.849-8.937,10.287-8.937c0.596,0,1.075,0.484,1.075,1.071c0,0.6-0.484,1.08-1.075,1.08c-5.092,0-8.136,3.444-8.136,6.782
	c0,2.299,1.573,4.762,5.986,4.762c2.751,0,5.753-1.047,8.439-2.504c-0.424-1.066-0.642-2.22-0.642-3.351
	c0-1.918,0.6-3.691,1.69-4.999c1.266-1.517,3.095-2.318,5.283-2.318c1.201,0,2.109,0.219,2.783,0.647
	c0.754,0.498,1.168,1.261,1.168,2.169c0,2.462-3.202,5.949-7.405,8.616c0.856,1.057,2.099,1.745,3.724,1.745
	c3.933,0,5.162-3.035,6.47-7.326c0.838-2.737,1.699-5.567,4.273-5.567c0.973,0,1.527,0.452,1.815,0.824
	c0.968,1.252,0.405,3.449-0.256,5.99c-0.521,2.029-1.243,4.808-0.54,5.711c0.07,0.093,0.289,0.372,1.131,0.372
	c1.247,0,1.769-3.1,2.188-5.581c0.573-3.426,1.229-7.312,4.259-7.312c0.903,0,1.476,0.391,1.792,0.717
	c1.043,1.071,0.987,2.984,0.922,5.194c-0.065,2.271-0.135,4.859,1.066,6.107c0.577,0.586,1.448,0.875,2.662,0.875h21.481
	c0.596,0,1.075,0.484,1.075,1.066C283.443,367.034,282.964,367.518,282.368,367.518z M234.836,354.355
	c-1.55,0-2.774,0.517-3.631,1.541c-0.768,0.922-1.192,2.206-1.192,3.621c0,0.763,0.116,1.527,0.358,2.234
	c3.603-2.332,6.265-5.208,6.265-6.74c0-0.186-0.042-0.27-0.191-0.363C236.274,354.537,235.837,354.355,234.836,354.355z"/>
<g>
</g>
<g>
</g>
<g>
</g>
<g>
</g>
<g>
</g>
<g>
</g>
<g>
</g>
<g>
</g>
<g>
</g>
<g>
</g>
<g>
</g>
<g>
</g>
<g>
</g>
<g>
</g>
<g>
</g>
</svg>
