<?xml version="1.0"?>
<svg xmlns="http://www.w3.org/2000/svg" xmlns:xlink="http://www.w3.org/1999/xlink" version="1.1" id="Capa_1" x="0px" y="0px" viewBox="0 0 414 414" style="enable-background:new 0 0 414 414;" xml:space="preserve" width="512px" height="512px" class=""><g><circle style="fill:#1194F6" cx="207" cy="207" r="207" data-original="#F0C48A" class="active-path" data-old_color="#1194f6"/><circle style="fill:#D3E6F8;" cx="108.8" cy="215.24" r="17.06" data-original="#D3E6F8" class=""/><path style="fill:#FD919E;" d="M263.585,283.137H46.556c-10.89,0-19.719-8.828-19.719-19.719V138.96  c0-10.891,8.829-19.719,19.719-19.719h217.029c10.891,0,19.719,8.829,19.719,19.719v124.458  C283.304,274.308,274.475,283.137,263.585,283.137z" data-original="#FD919E" class=""/><path style="fill:#E8677D;" d="M263.585,119.241h-70.006v163.896h70.006c10.891,0,19.719-8.828,19.719-19.719V138.96  C283.304,128.069,274.476,119.241,263.585,119.241z" data-original="#E8677D"/><path style="fill:#4C4372;" d="M263.585,289.137H46.557c-14.182,0-25.719-11.538-25.719-25.719V138.96  c0-14.182,11.538-25.719,25.719-25.719h217.028c14.182,0,25.719,11.538,25.719,25.719v124.458  C289.304,277.599,277.767,289.137,263.585,289.137z M46.557,125.241c-7.565,0-13.719,6.154-13.719,13.719v124.458  c0,7.565,6.154,13.719,13.719,13.719h217.028c7.565,0,13.719-6.154,13.719-13.719V138.96c0-7.565-6.154-13.719-13.719-13.719  L46.557,125.241L46.557,125.241z" data-original="#4C4372" class=""/><path style="fill:#D3E6F8;" d="M291.419,255.303H74.39c-10.891,0-19.719-8.829-19.719-19.719V111.126  c0-10.891,8.828-19.719,19.719-19.719h217.029c10.891,0,19.719,8.829,19.719,19.719v124.458  C311.138,246.474,302.309,255.303,291.419,255.303z" data-original="#D3E6F8" class=""/><g>
	<path style="fill:#A4CFF2;" d="M291.419,91.407h-10.941v163.896h10.941c10.891,0,19.719-8.829,19.719-19.719V111.126   C311.138,100.236,302.309,91.407,291.419,91.407z" data-original="#A4CFF2"/>
	<rect x="54.67" y="127.89" style="fill:#A4CFF2;" width="256.47" height="38.09" data-original="#A4CFF2"/>
</g><rect x="280.48" y="127.89" style="fill:#7BABF1;" width="30.66" height="38.09" data-original="#7BABF1" class=""/><g>
	<path style="fill:#4C4372;" d="M291.418,261.303H74.39c-14.182,0-25.719-11.538-25.719-25.719V111.126   c0-14.181,11.538-25.719,25.719-25.719h217.028c14.182,0,25.719,11.538,25.719,25.719v124.458   C317.138,249.766,305.6,261.303,291.418,261.303z M74.39,97.407c-7.565,0-13.719,6.154-13.719,13.719v124.458   c0,7.565,6.154,13.719,13.719,13.719h217.028c7.565,0,13.719-6.154,13.719-13.719V111.126c0-7.564-6.154-13.719-13.719-13.719   L74.39,97.407L74.39,97.407z" data-original="#4C4372" class=""/>
	<path style="fill:#4C4372;" d="M311.138,171.982H54.671c-3.313,0-6-2.687-6-6v-38.095c0-3.314,2.687-6,6-6h256.467   c3.313,0,6,2.686,6,6v38.095C317.138,169.296,314.451,171.982,311.138,171.982z M60.671,159.982h244.467v-26.095H60.671V159.982z" data-original="#4C4372" class=""/>
	<path style="fill:#4C4372;" d="M108.802,238.299c-12.713,0-23.056-10.343-23.056-23.056c0-12.713,10.343-23.056,23.056-23.056   s23.056,10.343,23.056,23.056C131.857,227.957,121.515,238.299,108.802,238.299z M108.802,204.188   c-6.096,0-11.056,4.959-11.056,11.056s4.96,11.056,11.056,11.056s11.056-4.96,11.056-11.056S114.898,204.188,108.802,204.188z" data-original="#4C4372" class=""/>
</g><circle style="fill:#FFFFFF" cx="91.75" cy="215.24" r="17.06" data-original="#FFFFFF" class=""/><g>
	<path style="fill:#4C4372;" d="M91.746,238.299c-12.713,0-23.056-10.343-23.056-23.056c0-12.713,10.343-23.056,23.056-23.056   s23.056,10.343,23.056,23.056C114.802,227.957,104.459,238.299,91.746,238.299z M91.746,204.188   c-6.096,0-11.056,4.959-11.056,11.056S85.65,226.3,91.746,226.3s11.056-4.96,11.056-11.056S97.842,204.188,91.746,204.188z" data-original="#4C4372" class=""/>
	<path style="fill:#4C4372;" d="M209.736,204.188h-53.663c-3.313,0-6-2.687-6-6s2.687-6,6-6h53.663c3.313,0,6,2.687,6,6   S213.049,204.188,209.736,204.188z" data-original="#4C4372" class=""/>
</g><path style="fill:#FD919E;" d="M383.703,319.133L383.703,319.133c-4.614,4.614-12.094,4.614-16.707,0l-80.157-80.157l16.707-16.707  l80.157,80.157C388.316,307.039,388.316,314.519,383.703,319.133z" data-original="#FD919E" class=""/><path style="fill:#4C4372;" d="M375.349,328.584c-4.562,0-9.124-1.736-12.596-5.209l-80.158-80.157  c-2.343-2.343-2.343-6.142,0-8.485l16.708-16.708c2.343-2.343,6.143-2.343,8.485,0l80.157,80.157c6.945,6.946,6.945,18.247,0,25.192  l0,0C384.472,326.848,379.911,328.584,375.349,328.584z M383.703,319.133h0.01H383.703z M295.323,238.976l75.915,75.915  c2.268,2.268,5.956,2.266,8.222,0l0,0c2.267-2.267,2.267-5.956,0-8.223l-75.915-75.914L295.323,238.976z" data-original="#4C4372" class=""/><circle style="fill:#A4CFF2;" cx="261.72" cy="197.15" r="68.14" data-original="#A4CFF2"/><circle style="fill:#FFFFFF" cx="261.72" cy="197.15" r="51.75" data-original="#FFFFFF" class=""/><g>
	<path style="fill:#4C4372;" d="M261.719,271.288c-19.803,0-38.421-7.711-52.425-21.715c-28.907-28.907-28.907-75.942,0-104.849   c28.907-28.906,75.942-28.906,104.849,0c14.003,14.003,21.715,32.622,21.715,52.425s-7.712,38.421-21.715,52.424   S281.522,271.288,261.719,271.288z M261.719,135.039c-15.915,0-31.824,6.056-43.939,18.171c-24.228,24.229-24.228,63.65,0,87.878   c11.737,11.737,27.341,18.2,43.939,18.2s32.203-6.463,43.939-18.2c11.737-11.736,18.2-27.341,18.2-43.939   s-6.463-32.203-18.2-43.939C293.545,141.097,277.629,135.039,261.719,135.039z" data-original="#4C4372" class=""/>
	<path style="fill:#4C4372;" d="M261.719,254.872c-14.791,0-29.576-5.627-40.835-16.887c-10.908-10.907-16.915-25.41-16.915-40.835   s6.007-29.928,16.915-40.835c10.907-10.908,25.41-16.915,40.835-16.915s29.928,6.007,40.835,16.915   c22.517,22.517,22.517,59.154,0,81.671C291.297,249.241,276.505,254.872,261.719,254.872z M261.719,151.398   c-12.22,0-23.709,4.759-32.35,13.4s-13.4,20.13-13.4,32.35c0,12.22,4.759,23.709,13.4,32.35c17.837,17.838,46.862,17.838,64.7,0   c17.838-17.838,17.838-46.862,0-64.7C285.428,156.158,273.939,151.398,261.719,151.398z" data-original="#4C4372" class=""/>
	<path style="fill:#4C4372;" d="M246.332,188.052l-6.378,8.661l6.378,8.728c0.571,0.806,0.436,1.98-0.403,2.551   c-0.336,0.235-0.705,0.369-1.074,0.369c-0.604,0-1.142-0.302-1.511-0.772l-5.64-7.755l-5.673,7.755   c-0.369,0.47-0.906,0.772-1.477,0.772c-0.403,0-0.772-0.134-1.074-0.369c-0.839-0.571-1.007-1.746-0.437-2.551l6.378-8.728   l-6.378-8.661c-0.57-0.839-0.402-1.98,0.437-2.551c0.806-0.638,1.98-0.47,2.551,0.403l5.673,7.721l5.64-7.721   c0.638-0.873,1.746-1.041,2.585-0.403C246.768,186.071,246.902,187.212,246.332,188.052z" data-original="#4C4372" class=""/>
	<path style="fill:#4C4372;" d="M270.564,188.052l-6.378,8.661l6.378,8.728c0.57,0.806,0.437,1.98-0.403,2.551   c-0.336,0.235-0.705,0.369-1.074,0.369c-0.604,0-1.142-0.302-1.511-0.772l-5.64-7.755l-5.673,7.755   c-0.369,0.47-0.906,0.772-1.477,0.772c-0.403,0-0.772-0.134-1.074-0.369c-0.839-0.571-1.007-1.746-0.436-2.551l6.378-8.728   l-6.378-8.661c-0.571-0.839-0.403-1.98,0.436-2.551c0.806-0.638,1.981-0.47,2.551,0.403l5.673,7.721l5.64-7.721   c0.638-0.873,1.746-1.041,2.585-0.403C271.001,186.071,271.135,187.212,270.564,188.052z" data-original="#4C4372" class=""/>
	<path style="fill:#4C4372;" d="M294.797,188.052l-6.378,8.661l6.378,8.728c0.571,0.806,0.436,1.98-0.403,2.551   c-0.336,0.235-0.705,0.369-1.074,0.369c-0.604,0-1.142-0.302-1.511-0.772l-5.64-7.755l-5.673,7.755   c-0.369,0.47-0.906,0.772-1.477,0.772c-0.403,0-0.772-0.134-1.074-0.369c-0.839-0.571-1.007-1.746-0.437-2.551l6.378-8.728   l-6.378-8.661c-0.57-0.839-0.402-1.98,0.437-2.551c0.806-0.638,1.98-0.47,2.551,0.403l5.673,7.721l5.64-7.721   c0.638-0.873,1.746-1.041,2.585-0.403C295.233,186.071,295.368,187.212,294.797,188.052z" data-original="#4C4372" class=""/>
</g></g> </svg>
