<?xml version="1.0"?>
<svg xmlns="http://www.w3.org/2000/svg" viewBox="0 -31 512 512" width="512px" height="512px" class=""><g><path d="m452 150v195c0 8.398438-6.597656 15-15 15h-362c-8.402344 0-15-6.601562-15-15v-195l196-30zm0 0" fill="#ffd400" data-original="#FFD400" class="" style="fill:#0089FF" data-old_color="#0091FF"/><path d="m452 150v195c0 8.398438-6.597656 15-15 15h-181v-240zm0 0" fill="#fdbf00" data-original="#FDBF00" class="" style="fill:#0063FF" data-old_color="#006BFF"/><path d="m452 105v45h-392v-45c0-8.402344 6.597656-15 15-15h362c8.402344 0 15 6.597656 15 15zm0 0" fill="#68544f" data-original="#68544F" class="" style="fill:#5E5E5E" data-old_color="#5F5F5F"/><path d="m166 300c-24.8125 0-45-20.1875-45-45s20.1875-45 45-45 45 20.1875 45 45-20.1875 45-45 45zm0 0" fill="#ff7816" data-original="#FF7816" class="active-path" style="fill:#FFAA00" data-old_color="#FFB200"/><path d="m377 240h-61c-8.289062 0-15-6.710938-15-15s6.710938-15 15-15h61c8.289062 0 15 6.710938 15 15s-6.710938 15-15 15zm0 0" fill="#53433f" data-original="#53433F" class="" style="fill:#3A433A" data-old_color="#3B443B"/><path d="m377 300h-61c-8.289062 0-15-6.710938-15-15s6.710938-15 15-15h61c8.289062 0 15 6.710938 15 15s-6.710938 15-15 15zm0 0" fill="#53433f" data-original="#53433F" class="" style="fill:#3A433A" data-old_color="#3B443B"/><path d="m15 90c-8.289062 0-15-6.710938-15-15v-60c0-8.289062 6.710938-15 15-15h60c8.289062 0 15 6.710938 15 15s-6.710938 15-15 15h-45v45c0 8.289062-6.710938 15-15 15zm0 0" fill="#68544f" data-original="#68544F" class="" style="fill:#5E5E5E" data-old_color="#5F5F5F"/><path d="m75 450h-60c-8.289062 0-15-6.710938-15-15v-60c0-8.289062 6.710938-15 15-15s15 6.710938 15 15v45h45c8.289062 0 15 6.710938 15 15s-6.710938 15-15 15zm0 0" fill="#68544f" data-original="#68544F" class="" style="fill:#5E5E5E" data-old_color="#5F5F5F"/><g fill="#53433f"><path d="m497 90c-8.289062 0-15-6.710938-15-15v-45h-45c-8.289062 0-15-6.710938-15-15s6.710938-15 15-15h60c8.289062 0 15 6.710938 15 15v60c0 8.289062-6.710938 15-15 15zm0 0" data-original="#000000" class="" style="fill:#393939" data-old_color="#3A3A3A"/><path d="m497 450h-60c-8.289062 0-15-6.710938-15-15s6.710938-15 15-15h45v-45c0-8.289062 6.710938-15 15-15s15 6.710938 15 15v60c0 8.289062-6.710938 15-15 15zm0 0" data-original="#000000" class="" style="fill:#393939" data-old_color="#3A3A3A"/><path d="m452 105v45h-196v-60h181c8.402344 0 15 6.597656 15 15zm0 0" data-original="#000000" class="" style="fill:#393939" data-old_color="#3A3A3A"/></g><path d="m256 221.699219c-7.800781-7.203125-18.300781-11.699219-30-11.699219-24.902344 0-45 20.097656-45 45 0 24.898438 20.097656 45 45 45 11.699219 0 22.199219-4.5 30-11.699219 9.300781-8.101562 15-20.101562 15-33.300781s-5.699219-25.199219-15-33.300781zm0 0" fill="#ede9e8" data-original="#EDE9E8" class=""/><path d="m256 221.699219c9.300781 8.101562 15 20.101562 15 33.300781s-5.699219 25.199219-15 33.300781zm0 0" fill="#dfd7d5" data-original="#DFD7D5" class="" style="fill:#DFD7D5"/></g> </svg>
