<svg height="512pt" viewBox="0 0 512.00029 512" width="512pt" xmlns="http://www.w3.org/2000/svg"><path d="m511.917969 262.5c-.058594 2.292969-.148438 4.589844-.269531 6.863281-.007813.128907-.007813.25-.019532.378907 0 .03125 0 .050781-.011718.078124-.136719 2.75-.328126 5.492188-.570313 8.210938-.578125 6.789062-1.417969 13.5-2.519531 20.128906-2.867188 17.339844-7.480469 34.082032-13.636719 50.03125-25.960937 67.277344-79.460937 120.609375-146.359375 146.558594-6.941406 2.710938-14 5.089844-21.160156 7.167969-12.429688 3.609375-25.121094 6.230469-37.941406 7.910156-4.039063.53125-8.078126.972656-12.140626 1.300781-1.4375.121094-2.886718.230469-4.339843.320313-5.507813.359375-11.027344.539062-16.546875.550781-2.300782 0-4.601563-.019531-6.902344-.082031-3.957031-.097657-7.886719-.289063-11.789062-.570313-6.03125-.429687-12-1.058594-17.898438-1.898437-.019531 0-.039062-.011719-.0625-.011719-121.96875-17.277344-215.4375-120.175781-219.597656-244.644531-.1796878-5.089844-.199219-10.203125-.0703128-15.292969.1406248-5.6875.4804688-11.367188.9999998-17.027344.160157-1.789062.351563-3.570312.550781-5.359375.832032-7.460937 2.160157-14.851562 3.492188-22.230469 24.1875-119.480468 131.296875-208 257.375-204.7968745 138.550781 3.5195315 248.597656 116.5078125 249.488281 254.1054685.03125 2.761719 0 5.53125-.070312 8.308594zm0 0" fill="#ff475a"/><path d="m511.917969 262.5c-.058594 2.292969-.148438 4.589844-.269531 6.863281-.007813.128907-.007813.25-.019532.378907 0 .03125 0 .050781-.011718.078124-.136719 2.75-.328126 5.492188-.570313 8.210938-.578125 6.789062-1.417969 13.5-2.519531 20.128906-2.867188 17.339844-7.480469 34.082032-13.636719 50.03125-25.960937 67.277344-79.460937 120.609375-146.359375 146.558594-6.941406 2.710938-14 5.089844-21.160156 7.167969-12.429688 3.609375-25.121094 6.230469-37.941406 7.910156-4.039063.53125-8.078126.972656-12.140626 1.300781-1.4375.121094-2.886718.230469-4.339843.320313-5.507813.359375-11.027344.539062-16.546875.550781-2.300782 0-4.601563-.019531-6.902344-.082031-3.957031-.097657-7.886719-.289063-11.789062-.570313l-116.296876-116.296875 166.695313-142-115.085937-115.089843c14.589843-4.738282 15.828124-26.019532 30.417968-30.757813 41.460938-13.46875 96.25-10.378906 137.707032-23.851563 51.5 51.511719 116.75 116.761719 170.839843 170.839844.03125 2.761719 0 5.53125-.070312 8.308594zm0 0" fill="#f03049"/><path d="m311 83.503906h-139.996094v100h29.996094v-70h110v70h30v-100zm0 0" fill="#ffbf00"/><path d="m341 83.503906v100h-30v-70h-55v-30zm0 0" fill="#ebb200"/><path d="m121.417969 165.050781h269.996093v230h-269.996093zm0 0" fill="#3a3aeb"/><path d="m256.003906 165.050781h135.410156v230h-135.410156zm0 0" fill="#3233c4"/><path d="m306 261.695312c0-28.273437-23.472656-51.070312-51.992188-49.960937-25.945312 1.011719-47.042968 22.175781-47.972656 48.125-.78125 21.765625 12.363282 40.554687 31.21875 48.1875v39.953125h40v-41.042969c16.984375-7.988281 28.746094-25.246093 28.746094-45.261719zm0 0" fill="#fff"/><path d="m306 261.703125c0 20.007813-11.757812 37.269531-28.75 45.257813v41.039062h-21.25v-136.308594c27.621094 0 50 22.390625 50 50.011719zm0 0" fill="#ebf6fc"/><path d="m253.050781 283.097656v-17.566406c-5.476562-1.5625-9.496093-3.929688-12.050781-7.105469-4.074219-5.050781-5.042969-12.675781-2.449219-18.625.71875-1.648437 1.730469-3.15625 2.953125-4.472656 2.890625-3.117187 6.742188-4.914063 11.546875-5.386719v-4.152344h6.082031v4.152344c4.441407.53125 7.976563 2.046875 10.605469 4.546875 2.625 2.503907 4.300781 5.847657 5.03125 10.042969l-10.605469 1.382812c-.644531-3.296874-2.320312-5.535156-5.03125-6.710937v16.394531c2.851563.773438 5.683594 1.71875 8.324219 3.058594 1.910157.972656 3.769531 2.175781 5.203125 3.792969 3.738282 4.230469 4.503906 10.488281 3.375 15.859375-.644531 3.070312-2.0625 5.917968-4.136718 8.269531-3.0625 3.464844-7.316407 5.589844-12.765626 6.371094v7.839843h-6.082031v-7.628906c-3.613281-.441406-7.144531-1.652344-10.046875-3.886718-2.691406-2.070313-4.644531-4.878907-5.882812-8.023438-.792969-2.019531-1.308594-4.140625-1.632813-6.285156l10.941407-1.171875c.445312 2.234375 1.285156 4.164062 2.511718 5.785156 1.230469 1.621094 2.601563 2.792969 4.109375 3.519531zm0-44.019531c-1.648437.5625-2.960937 1.511719-3.941406 2.851563-1.859375 2.550781-1.949219 5.980468-.125 8.574218.894531 1.273438 2.25 2.300782 4.066406 3.082032zm6.082031 44.605469c2.09375-.390625 3.796876-1.359375 5.113282-2.914063 2.414062-2.851562 2.722656-7.351562.3125-10.3125-1.101563-1.351562-2.914063-2.394531-5.425782-3.121093zm0 0" fill="#00ee84"/><path d="m272.65625 262.449219c-1.429688-1.621094-3.289062-2.820313-5.210938-3.789063-2.640624-1.351562-5.46875-2.289062-8.320312-3.058594v-16.402343c2.710938 1.179687 4.390625 3.410156 5.03125 6.710937l10.609375-1.378906c-.730469-4.191406-2.410156-7.542969-5.03125-10.042969-2.628906-2.5-6.167969-4.019531-10.609375-4.546875v-4.152344h-3.128906v75h3.128906v-7.839843c5.449219-.78125 9.710938-2.910157 12.769531-6.371094 2.070313-2.347656 3.492188-5.199219 4.140625-8.269531 1.128906-5.367188.359375-11.628906-3.378906-15.859375zm-8.421875 18.320312c-1.308594 1.550781-3.007813 2.519531-5.109375 2.910157v-16.351563c2.519531.730469 4.320312 1.769531 5.429688 3.132813 2.410156 2.957031 2.101562 7.457031-.320313 10.308593zm0 0" fill="#00cd71"/></svg>