<?xml version="1.0" encoding="iso-8859-1"?>
<!-- Generator: Adobe Illustrator 19.0.0, SVG Export Plug-In . SVG Version: 6.00 Build 0)  -->
<svg version="1.1" id="Layer_1" xmlns="http://www.w3.org/2000/svg" xmlns:xlink="http://www.w3.org/1999/xlink" x="0px" y="0px"
	 viewBox="0 0 512 512" style="enable-background:new 0 0 512 512;" xml:space="preserve">
<circle style="fill:#25B7D3;" cx="256" cy="256" r="256"/>
<rect x="125.673" y="218.764" style="fill:#FFFFFF;" width="260.655" height="167.564"/>
<path style="fill:#E2E4E5;" d="M367.709,134.982c0-5.143-4.166-9.309-9.309-9.309h-18.618c-5.143,0-9.309,4.166-9.309,9.309v55.855
	c0,5.143,4.166,9.309,9.309,9.309H358.4c5.143,0,9.309-4.166,9.309-9.309V134.982z"/>
<path style="fill:#DF2C2C;" d="M261.716,109.014c-3.361-2.616-8.071-2.616-11.432,0l-139.636,93.091
	c-3.137,2.444-4.38,6.609-3.091,10.37c1.294,3.761,4.831,6.288,8.806,6.288h279.273c3.975,0,7.512-2.527,8.806-6.288
	c1.289-3.761,0.051-7.927-3.091-10.37L261.716,109.014z"/>
<rect x="269.964" y="256" style="fill:#40C9E7;" width="97.745" height="70.377"/>
<path style="fill:#84462D;" d="M228.073,293.236c0-20.564-16.673-37.236-37.236-37.236S153.6,272.673,153.6,293.236v74.473h74.473
	V293.236z"/>
<circle style="fill:#FACB1B;" cx="209.455" cy="321.164" r="9.309"/>
<rect x="107.055" y="386.327" style="fill:#0D9681;" width="297.891" height="18.618"/>
<path style="fill:#17B198;" d="M107.055,386.327l14.527-14.527c2.621-2.62,6.172-4.091,9.877-4.091h249.088
	c3.705,0,7.256,1.471,9.872,4.091l14.527,14.527H107.055z"/>
<g>
</g>
<g>
</g>
<g>
</g>
<g>
</g>
<g>
</g>
<g>
</g>
<g>
</g>
<g>
</g>
<g>
</g>
<g>
</g>
<g>
</g>
<g>
</g>
<g>
</g>
<g>
</g>
<g>
</g>
</svg>
