<?xml version="1.0"?>
<svg xmlns="http://www.w3.org/2000/svg" height="512px" viewBox="0 0 464 464" width="512px" class=""><g><path d="m400 352h-48c-8.835938 0-16 7.164062-16 16v88c0 4.417969 3.582031 8 8 8h64c4.417969 0 8-3.582031 8-8v-88c0-8.835938-7.164062-16-16-16zm0 0" fill="#ffec97" data-original="#FFEC97" class="" style="fill:#FFEC97"/><path d="m208 248h-48c-8.835938 0-16 7.164062-16 16v192c0 4.417969 3.582031 8 8 8h64c4.417969 0 8-3.582031 8-8v-192c0-8.835938-7.164062-16-16-16zm0 0" fill="#ffdf47" data-original="#FFDF47" class="" style="fill:#FFDF47"/><path d="m112 208h-48c-8.835938 0-16 7.164062-16 16v232c0 4.417969 3.582031 8 8 8h64c4.417969 0 8-3.582031 8-8v-232c0-8.835938-7.164062-16-16-16zm0 0" fill="#ffdb2d" data-original="#FFDB2D" class="" style="fill:#FFDB2D"/><path d="m304 296h-48c-8.835938 0-16 7.164062-16 16v144c0 4.417969 3.582031 8 8 8h64c4.417969 0 8-3.582031 8-8v-144c0-8.835938-7.164062-16-16-16zm0 0" fill="#ffe670" data-original="#FFE670" class="" style="fill:#FFE670"/><path d="m456 464h-448c-4.417969 0-8-3.582031-8-8s3.582031-8 8-8h448c4.417969 0 8 3.582031 8 8s-3.582031 8-8 8zm0 0" fill="#6d76e7" data-original="#6D76E7" class="" style="fill:#6D76E7"/><path d="m376 208c-4.417969 0-8 3.582031-8 8v12.6875l-82.34375-82.34375c-2.433594-2.433594-6.152344-3.042969-9.230469-1.503906l-90.824219 45.425781-74.960937-74.960937c-3.140625-3.03125-8.128906-2.988282-11.214844.097656-3.085937 3.085937-3.128906 8.074218-.097656 11.214844l79.039063 79.039062c2.433593 2.433594 6.152343 3.042969 9.234374 1.503906l90.796876-45.425781 78.289062 78.265625h-12.6875c-4.417969 0-8 3.582031-8 8s3.582031 8 8 8h32c3.234375-.003906 6.148438-1.953125 7.382812-4.945312.402344-.96875.613282-2.003907.617188-3.054688v-32c0-4.417969-3.582031-8-8-8zm0 0" fill="#6d76e7" data-original="#6D76E7" class="" style="fill:#6D76E7"/><path d="m120 104c0 17.671875-14.328125 32-32 32s-32-14.328125-32-32 14.328125-32 32-32 32 14.328125 32 32zm0 0" fill="#ffdb2d" data-original="#FFDB2D" class="" style="fill:#FFDB2D"/><path d="m424 96h-32c-13.253906 0-24-10.746094-24-24s10.746094-24 24-24h48c4.417969 0 8-3.582031 8-8s-3.582031-8-8-8h-24v-24c0-4.417969-3.582031-8-8-8s-8 3.582031-8 8v24h-8c-22.089844 0-40 17.910156-40 40s17.910156 40 40 40h32c13.253906 0 24 10.746094 24 24s-10.746094 24-24 24h-48c-4.417969 0-8 3.582031-8 8s3.582031 8 8 8h24v24c0 4.417969 3.582031 8 8 8s8-3.582031 8-8v-24h8c22.089844 0 40-17.910156 40-40s-17.910156-40-40-40zm0 0" fill="#fec000" data-original="#FEC000" class="active-path" style="fill:#FEC000" data-old_color="#00FF33"/></g> </svg>
