<svg height="400pt" viewBox="0 0 400 400" width="400pt" xmlns="http://www.w3.org/2000/svg"><g fill="#ffde60"><path d="m88 40c-11.664062 0-32-20.335938-32-32 0-4.417969-3.582031-8-8-8s-8 3.582031-8 8c0 11.664062-20.335938 32-32 32-4.417969 0-8 3.582031-8 8s3.582031 8 8 8c11.664062 0 32 20.335938 32 32 0 4.417969 3.582031 8 8 8s8-3.582031 8-8c0-11.664062 20.335938-32 32-32 4.417969 0 8-3.582031 8-8s-3.582031-8-8-8zm0 0"/><path d="m392 216c-11.664062 0-32-20.335938-32-32 0-4.417969-3.582031-8-8-8s-8 3.582031-8 8c0 11.664062-20.335938 32-32 32-4.417969 0-8 3.582031-8 8s3.582031 8 8 8c11.664062 0 32 20.335938 32 32 0 4.417969 3.582031 8 8 8s8-3.582031 8-8c0-11.664062 20.335938-32 32-32 4.417969 0 8-3.582031 8-8s-3.582031-8-8-8zm0 0"/><path d="m104 288c-11.664062 0-32-20.335938-32-32 0-4.417969-3.582031-8-8-8s-8 3.582031-8 8c0 11.664062-20.335938 32-32 32-4.417969 0-8 3.582031-8 8s3.582031 8 8 8c11.664062 0 32 20.335938 32 32 0 4.417969 3.582031 8 8 8s8-3.582031 8-8c0-11.664062 20.335938-32 32-32 4.417969 0 8-3.582031 8-8s-3.582031-8-8-8zm0 0"/></g><path d="m256 160h-112c-4.417969 0-8 3.582031-8 8v224c0 3.125 1.820312 5.964844 4.660156 7.269531 2.835938 1.304688 6.175782.835938 8.546875-1.199219l50.792969-43.535156 50.792969 43.535156c2.371093 2.035157 5.710937 2.503907 8.546875 1.199219 2.839844-1.304687 4.660156-4.144531 4.660156-7.269531v-224c0-4.417969-3.582031-8-8-8zm0 0" fill="#3153bf"/><path d="m256 160h-112c-4.417969 0-8 3.582031-8 8v80h14.054688l32.976562 32.96875c4.488281 4.515625 10.601562 7.050781 16.96875 7.03125v66.535156l50.792969 43.535156c2.371093 2.035157 5.710937 2.503907 8.546875 1.199219 2.839844-1.304687 4.660156-4.144531 4.660156-7.269531v-224c0-4.417969-3.582031-8-8-8zm0 0" fill="#1c3fb1"/><path d="m232 160h-16v208.246094l16 13.722656zm0 0" fill="#426efe"/><path d="m168 381.96875 16-13.722656v-208.246094h-16zm0 0" fill="#426efe"/><path d="m183.03125 280.96875c.296875.304688.65625.511719.96875.800781v-121.769531h-16v105.9375zm0 0" fill="#3253bf"/><path d="m333.65625 130.34375-37.65625-37.65625v-44.6875c0-4.417969-3.582031-8-8-8h-44.6875l-37.65625-37.65625c-3.125-3.121094-8.1875-3.121094-11.3125 0l-37.65625 37.65625h-44.6875c-4.417969 0-8 3.582031-8 8v44.6875l-37.65625 37.65625c-3.121094 3.125-3.121094 8.1875 0 11.3125l37.65625 37.65625v44.6875c0 4.417969 3.582031 8 8 8h44.6875l37.65625 37.65625c3.125 3.121094 8.1875 3.121094 11.3125 0l37.65625-37.65625h44.6875c4.417969 0 8-3.582031 8-8v-44.6875l37.65625-37.65625c3.121094-3.125 3.121094-8.1875 0-11.3125zm0 0" fill="#feb03f"/><path d="m272 136c0 39.765625-32.234375 72-72 72s-72-32.234375-72-72 32.234375-72 72-72 72 32.234375 72 72zm0 0" fill="#fec46f"/><path d="m272 136c-.046875-39.746094-32.253906-71.953125-72-72v144c39.746094-.046875 71.953125-32.253906 72-72zm0 0" fill="#fedca9"/><path d="m200 97.960938 9.441406 29.054687h30.558594l-24.71875 17.96875 9.4375 29.054687-24.71875-17.960937-24.71875 17.960937 9.4375-29.054687-24.71875-17.96875h30.558594zm0 0" fill="#fff8ee"/></svg>