<?xml version="1.0"?>
<svg xmlns="http://www.w3.org/2000/svg" xmlns:xlink="http://www.w3.org/1999/xlink" version="1.1" id="Layer_1" x="0px" y="0px" viewBox="0 0 512 512" style="enable-background:new 0 0 512 512;" xml:space="preserve" width="512px" height="512px" class=""><g><circle style="fill:#FDADDC" cx="256" cy="256" r="256" data-original="#0091EA" class="active-path" data-old_color="#FDA3D8"/><path style="fill:#FBC8C8;" d="M404.945,260.655c0-3.51-7.447-4.175-9.309-1.201c-3.565,5.693-4.557,14.113-20.238,15.067  c-17.934-127.246-171.655-95.749-193.871-55.757c-32.582-23.273-55.855-13.964-55.855-13.964c0,18.618,9.309,41.891,18.581,50.055  c-0.465,0.447-0.735,0.698-1.201,1.145h-23.817c-6.726,0-12.181,5.455-12.181,12.181v31.493c0,6.726,5.455,12.181,12.181,12.181  h-0.326c12.246,0,23.119,7.48,27.881,18.772c6.144,14.592,17.315,27.229,31.134,36.771l-9.91,24.781  c-1.15,2.863-0.801,6.116,0.931,8.671c1.736,2.565,4.627,4.096,7.713,4.096h19.014c2.825,0,5.502-1.28,7.27-3.491l13.866-17.338  c6.791,1.434,13.694,2.211,20.573,2.211h41.891c4.157,0,8.28-0.298,12.362-0.838l12.767,15.965c1.769,2.211,4.44,3.491,7.27,3.491  h19.014c3.086,0,5.976-1.531,7.708-4.091c1.731-2.555,2.081-5.809,0.931-8.671l-8.239-20.61  c22.193-13.4,39.061-34.863,44.241-59.899C401.715,309.783,404.945,283.089,404.945,260.655z" data-original="#FBC8C8"/><path style="fill:#FFEBEE;" d="M181.527,218.764c-32.582-23.273-55.855-13.964-55.855-13.964c0,18.618,9.309,41.891,18.581,50.055  c-0.465,0.447-0.735,0.698-1.201,1.145h-23.817c-6.726,0-12.181,5.455-12.181,12.181v31.493c0,13.689,16.51,12.181,11.855,12.181  c12.246,0,23.119,7.48,27.881,18.772c3.998,9.491,10.166,18.129,17.748,25.66l160.279-160.284  C272.156,168.439,196.599,191.637,181.527,218.764z" data-original="#FFEBEE"/><path style="fill:#733725;" d="M325.492,218.871c-0.475-1.215-1.42-2.188-2.621-2.69c-4.436-1.88-8.848-3.523-13.251-4.98  l-11.152,11.152c4.957,1.396,9.961,3.058,15.011,5.064c4.617,1.834,9.844-0.27,11.902-4.79  C325.921,221.435,325.962,220.086,325.492,218.871z" data-original="#733725"/><path style="fill:#8F4D38;" d="M209.538,216.101c-1.201,0.554-2.122,1.573-2.555,2.825c-0.438,1.247-0.34,2.62,0.256,3.793  c2.22,4.375,7.466,6.279,11.971,4.343c25.526-10.947,51.689-12.493,79.262-4.715l11.152-11.152  C274.925,199.699,241.352,201.314,209.538,216.101z" data-original="#8F4D38"/><circle style="fill:#FDD835;" cx="258.327" cy="155.927" r="48.873" data-original="#FDD835"/><path style="fill:#FFEE58;" d="M258.327,107.055c-26.992,0-48.873,21.881-48.873,48.873c0,13.48,5.46,25.688,14.285,34.527  l69.115-69.115C284.016,112.514,271.807,107.055,258.327,107.055z" data-original="#FFEE58"/><path style="fill:#733725;" d="M259.151,120.362c1.969,0,3.533,1.559,3.533,3.528v1.811c4.845,0.577,8.951,2.136,12.726,4.524  c1.317,0.731,2.462,1.969,2.462,3.942c0,2.546-2.048,4.52-4.594,4.52c-0.824,0-1.648-0.251-2.467-0.745  c-2.872-1.718-5.665-2.956-8.457-3.607v15.774c12.488,3.119,17.827,8.127,17.827,16.919c0,9.034-7.066,15.03-17.496,16.016v4.929  c0,1.974-1.564,3.528-3.533,3.528c-1.974,0-3.612-1.555-3.612-3.528v-5.092c-6.163-0.666-11.832-2.881-16.84-6.409  c-1.396-0.903-2.22-2.22-2.22-3.947c0-2.546,1.974-4.515,4.52-4.515c0.987,0,1.974,0.326,2.709,0.903  c3.859,2.793,7.643,4.678,12.158,5.502v-16.184c-11.99-3.119-17.576-7.638-17.576-16.919c0-8.792,6.982-14.867,17.25-15.69v-1.727  C255.535,121.921,257.178,120.362,259.151,120.362z M255.865,148.373v-14.536c-5.26,0.489-7.885,3.281-7.885,6.893  C247.976,144.189,249.535,146.32,255.865,148.373z M262.349,159.791v14.946c5.26-0.573,8.132-3.202,8.132-7.145  C270.48,163.975,268.679,161.759,262.349,159.791z" data-original="#733725"/><g>
	<path style="fill:#8F4D38;" d="M243.703,168.909c-0.735-0.577-1.722-0.903-2.709-0.903c-2.546,0-4.52,1.969-4.52,4.515   c0,1.48,0.633,2.634,1.685,3.514l6.493-6.498C244.34,169.323,244.024,169.137,243.703,168.909z" data-original="#8F4D38"/>
	<path style="fill:#8F4D38;" d="M238.285,141.307c0,9.281,5.585,13.801,17.576,16.919v0.107l7.843-7.848   c-0.465-0.126-0.87-0.275-1.354-0.391v-15.774c2.797,0.656,5.585,1.89,8.457,3.607c0.824,0.493,1.648,0.745,2.467,0.745   c2.546,0,4.594-1.974,4.594-4.52c0-1.974-1.145-3.207-2.462-3.942c-3.78-2.388-7.88-3.947-12.726-4.524v-1.811   c0-1.969-1.564-3.528-3.533-3.528c-1.974,0-3.612,1.559-3.612,3.528v1.727C245.267,126.441,238.285,132.52,238.285,141.307z    M255.865,133.837v14.536c-6.326-2.053-7.885-4.184-7.885-7.643C247.976,137.118,250.605,134.326,255.865,133.837z" data-original="#8F4D38"/>
</g><path style="fill:#5C1700" d="M183.101,251.345c-4.92,0-9.1,3.053-10.803,7.364l0.973,0.563l6.172,3.565l-6.172,3.565l-1.052,0.605  c1.643,4.436,5.874,7.61,10.882,7.61c6.423,0,11.636-5.208,11.636-11.636S189.524,251.345,183.101,251.345z" data-original="#5C1700" class=""/></g> </svg>
