<svg height="464pt" viewBox="0 0 464 464" width="464pt" xmlns="http://www.w3.org/2000/svg"><path d="m416 160h-48c-8.835938 0-16 7.164062-16 16v24c0 4.417969 3.582031 8 8 8h64c4.417969 0 8-3.582031 8-8v-24c0-8.835938-7.164062-16-16-16zm0 0" fill="#a3d9f6"/><path d="m424 0h-64c-4.417969 0-8 3.582031-8 8v80c0 22.089844 17.910156 40 40 40s40-17.910156 40-40v-80c0-4.417969-3.582031-8-8-8zm0 0" fill="#a3d9f6"/><path d="m456 192h-24v-16c0-8.835938-7.164062-16-16-16h-16v-32.800781c18.613281-3.828125 31.976562-20.199219 32-39.199219v-8h8c13.253906 0 24-10.746094 24-24s-10.746094-24-24-24h-8v-16h8c4.417969 0 8-3.582031 8-8s-3.582031-8-8-8h-96c-4.417969 0-8 3.582031-8 8s3.582031 8 8 8h8v16h-8c-13.253906 0-24 10.746094-24 24s10.746094 24 24 24h8v8c.023438 19 13.386719 35.371094 32 39.199219v32.800781h-16c-8.835938 0-16 7.164062-16 16v16h-24c-4.417969 0-8 3.582031-8 8v56h-120c-4.417969 0-8 3.582031-8 8v56h-120c-4.417969 0-8 3.582031-8 8v56h-56c-4.417969 0-8 3.582031-8 8v64c0 4.417969 3.582031 8 8 8h448c4.417969 0 8-3.582031 8-8v-256c0-4.417969-3.582031-8-8-8zm-16-144c4.417969 0 8 3.582031 8 8s-3.582031 8-8 8h-8v-16zm-96 16c-4.417969 0-8-3.582031-8-8s3.582031-8 8-8h8v16zm24 24v-72h48v72c0 13.253906-10.746094 24-24 24s-24-10.746094-24-24zm0 88h48v16h-48zm80 272h-432v-48h120c4.417969 0 8-3.582031 8-8s-3.582031-8-8-8h-56v-48h184c4.417969 0 8-3.582031 8-8s-3.582031-8-8-8h-56v-48h184c4.417969 0 8-3.582031 8-8s-3.582031-8-8-8h-56v-48h112zm0 0" fill="#009ae5"/></svg>