<?xml version="1.0" encoding="iso-8859-1"?>
<!-- Generator: Adobe Illustrator 19.0.0, SVG Export Plug-In . SVG Version: 6.00 Build 0)  -->
<svg version="1.1" id="Capa_1" xmlns="http://www.w3.org/2000/svg" xmlns:xlink="http://www.w3.org/1999/xlink" x="0px" y="0px"
	 viewBox="0 0 512 512" style="enable-background:new 0 0 512 512;" xml:space="preserve">
<path style="fill:#8DB5EA;" d="M308.884,42.823h113.479l-3.191-17.636c-1.57-8.677-9.124-14.987-17.941-14.987h-71.214
	c-8.818,0-16.372,6.31-17.942,14.987L308.884,42.823z"/>
<path style="fill:#F0F1F1;" d="M462.922,459.381H49.078c-12.209,0-22.106-9.897-22.106-22.106V64.929
	c0-12.209,9.897-22.106,22.106-22.106h413.843c12.209,0,22.106,9.897,22.106,22.106v372.346
	C485.027,449.484,475.13,459.381,462.922,459.381z"/>
<path style="fill:#C1C6CA;" d="M422.362,219.217H89.638v156.741c0,9.007,7.302,16.309,16.309,16.309h300.107
	c9.007,0,16.309-7.302,16.309-16.309L422.362,219.217L422.362,219.217z"/>
<g>
	<path style="fill:#FFFFFF;" d="M144.151,354.624c-1.919,0-3.839-0.732-5.303-2.197c-2.929-2.929-2.929-7.678,0-10.607
		l35.498-35.498c2.929-2.929,7.678-2.929,10.606,0c2.929,2.929,2.929,7.678,0,10.606l-35.498,35.498
		C147.99,353.891,146.071,354.624,144.151,354.624z"/>
	<path style="fill:#FFFFFF;" d="M295.398,361.703c-1.919,0-3.839-0.732-5.303-2.197c-2.929-2.929-2.929-7.678,0-10.607
		l83.544-83.544c2.929-2.929,7.678-2.929,10.606,0c2.929,2.929,2.929,7.678,0,10.606l-83.544,83.544
		C299.237,360.97,297.317,361.703,295.398,361.703z"/>
</g>
<path style="opacity:0.1;enable-background:new    ;" d="M168.153,42.823H49.078c-12.209,0-22.106,9.897-22.106,22.106v372.346
	c0,12.209,9.897,22.106,22.106,22.106h196.135C134.021,373.053,149.177,94.18,168.153,42.823z"/>
<path style="fill:#C3E9F1;" d="M492.123,143.374H19.877C8.899,143.374,0,134.476,0,123.497V62.701
	c0-10.978,8.899-19.877,19.877-19.877h472.245C503.101,42.823,512,51.723,512,62.701v60.797
	C512,134.476,503.101,143.374,492.123,143.374z"/>
<path style="opacity:0.05;enable-background:new    ;" d="M161.385,42.823H19.877C8.899,42.823,0,51.723,0,62.701v60.796
	c0,10.978,8.899,19.877,19.877,19.877h142.937C151.583,109.594,150.634,78.856,161.385,42.823z"/>
<path style="opacity:0.1;enable-background:new    ;" d="M419.592,198.458H92.408c-7.7,0-14.631,4.671-17.521,11.808L67.9,227.518
	c-2.411,5.954,1.971,12.457,8.395,12.457h359.409c6.424,0,10.806-6.503,8.395-12.457l-6.986-17.252
	C434.223,203.13,427.292,198.458,419.592,198.458z"/>
<g>
	<path style="fill:#8DB5EA;" d="M419.592,177.7H92.408c-7.7,0-14.631,4.671-17.521,11.808L67.9,206.76
		c-2.411,5.954,1.971,12.457,8.395,12.457h359.409c6.424,0,10.806-6.502,8.395-12.457l-6.986-17.252
		C434.223,182.37,427.292,177.7,419.592,177.7z"/>
	<path style="fill:#8DB5EA;" d="M203.116,42.823H89.638l3.191-17.636c1.57-8.677,9.124-14.987,17.941-14.987h71.214
		c8.818,0,16.372,6.31,17.941,14.987L203.116,42.823z"/>
	<path style="fill:#8DB5EA;" d="M109.498,501.801H76.714c-7.653,0-13.858-6.204-13.858-13.858v-28.562h60.5v28.563
		C123.356,495.597,117.151,501.801,109.498,501.801z"/>
</g>
<rect x="62.856" y="459.381" style="opacity:0.1;enable-background:new    ;" width="60.5" height="19.13"/>
<path style="fill:#8DB5EA;" d="M402.502,501.801h32.784c7.653,0,13.858-6.204,13.858-13.858v-28.562h-60.5v28.563
	C388.644,495.597,394.849,501.801,402.502,501.801z"/>
<rect x="388.64" y="459.381" style="opacity:0.1;enable-background:new    ;" width="60.5" height="19.13"/>
<g>
	<ellipse style="fill:#F18290;" cx="184.65" cy="313.071" rx="26.327" ry="20.965"/>
	<ellipse style="fill:#F18290;" cx="327.35" cy="313.071" rx="26.327" ry="20.965"/>
</g>
<g>
	<path style="fill:#5D6671;" d="M199.993,299.657c-4.142,0-7.5-3.358-7.5-7.5v-9.297c0-4.142,3.358-7.5,7.5-7.5s7.5,3.358,7.5,7.5
		v9.297C207.493,296.299,204.135,299.657,199.993,299.657z"/>
	<path style="fill:#5D6671;" d="M312.007,299.657c-4.142,0-7.5-3.358-7.5-7.5v-9.297c0-4.142,3.358-7.5,7.5-7.5s7.5,3.358,7.5,7.5
		v9.297C319.507,296.299,316.149,299.657,312.007,299.657z"/>
	<path style="fill:#5D6671;" d="M256,306.796c-7.827,0-15.27-3.39-20.42-9.299c-2.721-3.123-2.396-7.86,0.727-10.582
		c3.123-2.721,7.859-2.396,10.582,0.727c2.301,2.641,5.622,4.155,9.112,4.155c3.49,0,6.811-1.514,9.112-4.155
		c2.721-3.122,7.459-3.447,10.582-0.727c3.123,2.722,3.448,7.459,0.727,10.582C271.27,303.407,263.827,306.796,256,306.796z"/>
</g>
<circle style="fill:#FFFFFF;" cx="342.7" cy="93.991" r="26.781"/>
<path style="fill:#7FCDE7;" d="M342.697,94.543c-4.142,0-7.5-3.358-7.5-7.5V64.392c0-4.142,3.358-7.5,7.5-7.5s7.5,3.358,7.5,7.5
	v22.651C350.197,91.185,346.839,94.543,342.697,94.543z"/>
<circle style="fill:#FFFFFF;" cx="429.39" cy="93.991" r="26.782"/>
<path style="fill:#7FCDE7;" d="M429.395,94.543c-4.142,0-7.5-3.358-7.5-7.5V64.392c0-4.142,3.358-7.5,7.5-7.5s7.5,3.358,7.5,7.5
	v22.651C436.895,91.185,433.537,94.543,429.395,94.543z"/>
<circle style="fill:#FFFFFF;" cx="256" cy="93.991" r="26.782"/>
<path style="fill:#7FCDE7;" d="M260.911,96.576c-1.919,0-3.839-0.733-5.303-2.197c-2.929-2.929-2.929-7.678,0-10.606l16.017-16.017
	c2.929-2.929,7.678-2.929,10.606,0c2.929,2.929,2.929,7.678,0,10.606L266.214,94.38C264.75,95.845,262.831,96.576,260.911,96.576z"
	/>
<circle style="fill:#FFFFFF;" cx="169.3" cy="93.991" r="26.781"/>
<path style="fill:#7FCDE7;" d="M169.303,94.543c-4.142,0-7.5-3.358-7.5-7.5V64.392c0-4.142,3.358-7.5,7.5-7.5s7.5,3.358,7.5,7.5
	v22.651C176.803,91.185,173.445,94.543,169.303,94.543z"/>
<circle style="fill:#FFFFFF;" cx="82.61" cy="93.991" r="26.782"/>
<path style="fill:#7FCDE7;" d="M82.605,94.543c-4.142,0-7.5-3.358-7.5-7.5V64.392c0-4.142,3.358-7.5,7.5-7.5s7.5,3.358,7.5,7.5
	v22.651C90.105,91.185,86.748,94.543,82.605,94.543z"/>
<g>
</g>
<g>
</g>
<g>
</g>
<g>
</g>
<g>
</g>
<g>
</g>
<g>
</g>
<g>
</g>
<g>
</g>
<g>
</g>
<g>
</g>
<g>
</g>
<g>
</g>
<g>
</g>
<g>
</g>
</svg>
