<svg height="512pt" viewBox="0 -88 512 512" width="512pt" xmlns="http://www.w3.org/2000/svg"><path d="m136 72h48v-64h-48c-17.671875 0-32 14.328125-32 32s14.328125 32 32 32zm0 0" fill="#3d9ae2"/><path d="m376 264h-48v64h48c17.671875 0 32-14.328125 32-32s-14.328125-32-32-32zm0 0" fill="#3d9ae2"/><path d="m352 144v48h56v104c-.050781-17.652344-14.347656-31.949219-32-32h-240c-17.652344-.050781-31.949219-14.347656-32-32v-40h56v-48h-56v-104c.050781 17.652344 14.347656 31.949219 32 32h240c17.652344.050781 31.949219 14.347656 32 32v40zm0 0" fill="#00e7f0"/><path d="m504 160v16l-32 40h-16v-24h-104v-48h104v-24h16zm0 0" fill="#ff728b"/><path d="m160 144v48h-104v24h-16l-32-40v-16l32-40h16v24zm0 0" fill="#ff728b"/><g fill="#004fac"><path d="m268 128c4.417969 0 8 3.582031 8 8h16c0-13.253906-10.746094-24-24-24h-4v-8h-16v8h-4c-13.253906 0-24 10.746094-24 24v16c0 13.253906 10.746094 24 24 24h4v32h-4c-4.417969 0-8-3.582031-8-8h-16c0 13.253906 10.746094 24 24 24h4v8h16v-8h4c13.253906 0 24-10.746094 24-24v-16c0-13.253906-10.746094-24-24-24h-4v-32zm0 48c4.417969 0 8 3.582031 8 8v16c0 4.417969-3.582031 8-8 8h-4v-32zm-20-16h-4c-4.417969 0-8-3.582031-8-8v-16c0-4.417969 3.582031-8 8-8h4zm0 0"/><path d="m448 112v24h-32v-32c-.027344-22.082031-17.917969-39.972656-40-40h-184v-64h-56c-22.082031.0273438-39.972656 17.917969-40 40v96h-32v-24h-27.839844l-36.160156 45.191406v21.601563l36.160156 45.207031h27.839844v-24h32v32c.027344 22.082031 17.917969 39.972656 40 40h184v64h56c22.082031-.027344 39.972656-17.917969 40-40v-96h32v24h27.839844l36.160156-45.191406v-21.601563l-36.160156-45.207031zm-312-96h40v48h-40c-13.253906 0-24-10.746094-24-24s10.746094-24 24-24zm-88 168v24h-4.160156l-27.839844-34.808594v-10.398437l27.839844-34.792969h4.160156v24h104v32zm328 136h-40v-48h40c13.253906 0 24 10.746094 24 24s-10.746094 24-24 24zm24-56c-.304688-.222656-.664062-.390625-.976562-.617188-.664063-.472656-1.367188-.878906-2.0625-1.3125-1.339844-.835937-2.730469-1.59375-4.160157-2.261718-.800781-.367188-1.601562-.710938-2.402343-1.03125-1.546876-.589844-3.132813-1.078125-4.742188-1.472656-.753906-.191407-1.488281-.425782-2.257812-.570313-2.4375-.476563-4.914063-.722656-7.398438-.734375h-240c-13.253906 0-24-10.746094-24-24v-32h56v-64h-56v-64c.304688.222656.664062.390625.976562.617188.664063.472656 1.367188.878906 2.0625 1.3125 1.34375.835937 2.730469 1.589843 4.160157 2.261718.800781.367188 1.601562.710938 2.402343 1.03125 1.546876.589844 3.132813 1.078125 4.742188 1.472656.753906.191407 1.488281.425782 2.257812.570313 2.4375.476563 4.914063.722656 7.398438.734375h240c13.253906 0 24 10.746094 24 24v32h-56v64h56zm96-90.808594-27.839844 34.808594h-4.160156v-24h-104v-32h104v-24h4.160156l27.839844 34.808594zm0 0"/><path d="m224 0h104v16h-104zm0 0"/><path d="m360 0h120v16h-120zm0 0"/><path d="m224 32h72v16h-72zm0 0"/><path d="m328 32h32v16h-32zm0 0"/><path d="m184 320h104v16h-104zm0 0"/><path d="m32 320h120v16h-120zm0 0"/><path d="m216 288h72v16h-72zm0 0"/><path d="m152 288h32v16h-32zm0 0"/></g></svg>