<svg height="512pt" viewBox="0 0 512 512.0002" width="512pt" xmlns="http://www.w3.org/2000/svg"><path d="m464.070312 256c0 56.839844-22.746093 108.347656-59.648437 145.933594-33.398437 34.03125-78.394531 56.652344-128.59375 61.449218-6.621094.640626-13.320313.960938-20.101563.960938-63.765624 0-120.847656-28.648438-159.066406-73.777344-10.808594-12.761718-20.117187-26.851562-27.628906-41.980468-13.859375-27.890626-21.648438-59.328126-21.648438-92.585938 0-86.648438 52.890626-160.949219 128.15625-192.355469 24.691407-10.300781 51.769532-15.992187 80.1875-15.992187 51.289063 0 98.25 18.53125 134.546876 49.261718.011718.007813.011718.007813.019531.019532 45.128906 38.21875 73.777343 95.296875 73.777343 159.066406zm0 0" fill="#9bf2e5"/><path d="m464.070312 256c0 56.839844-22.746093 108.347656-59.648437 145.933594-33.398437 34.03125-78.394531 56.652344-128.59375 61.449218-6.621094.640626-13.320313.960938-20.101563.960938-63.765624 0-120.847656-28.648438-159.066406-73.777344v-.011718c36.300782 30.71875 83.25 49.25 134.527344 49.25 6.78125 0 13.480469-.320313 20.101562-.960938 50.199219-4.800781 95.195313-27.417969 128.59375-61.449219 36.890626-37.585937 59.648438-89.097656 59.648438-145.933593 0-51.289063-18.527344-98.226563-49.238281-134.527344 45.128906 38.21875 73.777343 95.296875 73.777343 159.066406zm0 0" fill="#2de0c7"/><path d="m275.828125 397.875v65.507812c-6.621094.640626-13.320313.960938-20.101563.960938-63.777343 0-120.855468-28.648438-159.066406-73.777344v-.011718c-10.808594-12.757813-20.109375-26.835938-27.628906-41.96875h62.339844c2.449218 0 4.808594-.980469 6.539062-2.707032l16.199219-16.210937c1.742187-1.730469 2.710937-4.082031 2.710937-6.539063v-24.980468c0-5.109376-4.128906-9.25-9.25-9.25h-41.390624c-5.121094 0-9.257813-4.148438-9.257813-9.261719v-33.746094c0-3.121094 1.570313-6.03125 4.179687-7.742187l30.109376-19.777344c1.507812-1 3.277343-1.519532 5.078124-1.519532h37.96875c30.148438 0 54.601563 24.4375 54.601563 54.585938v36.449219c0 2.460937.96875 4.8125 2.707031 6.542969l21.921875 21.925781c1.738281 1.742187 2.707031 4.089843 2.707031 6.542969v27.6875c0 2.449218.980469 4.800781 2.710938 6.539062l14.210938 14.210938c1.738281 1.730468 2.710937 4.089843 2.710937 6.539062zm0 0" fill="#84e507"/><path d="m251.285156 438.84375c8.332032-.796875 16.519532-2.078125 24.539063-3.839844v28.378906c-6.617188.640626-13.320313.960938-20.097657.960938-63.777343 0-120.855468-28.648438-159.066406-73.777344v-.011718c36.300782 30.71875 83.25 49.25 134.527344 49.25 6.78125 0 13.480469-.320313 20.097656-.960938zm0 0" fill="#69cc00"/><path d="m404.421875 324.578125c0-2.449219-.96875-4.800781-2.710937-6.539063l-19.828126-19.832031c-1.738281-1.738281-4.089843-2.707031-6.539062-2.707031h-71.558594c-5.101562 0-9.25-4.152344-9.25-9.261719v-110.917969c0-2.449218-.96875-4.796874-2.710937-6.539062l-22.15625-22.15625c-1.742188-1.742188-4.089844-2.710938-6.550781-2.710938h-49.339844c-2.449219 0-4.800782-.972656-6.539063-2.710937l-28.980469-28.988281c-1.738281-1.742188-2.71875-4.089844-2.71875-6.539063v-42.03125c24.6875-10.300781 51.769532-15.992187 80.1875-15.992187 51.300782 0 98.265626 18.539062 134.566407 49.28125l.007812.007812c45.128907 38.222656 73.769531 95.289063 73.769531 159.058594 0 56.839844-22.75 108.347656-59.648437 145.933594zm0 0" fill="#84e507"/><path d="m404.421875 347.238281c22.167969-33.109375 35.109375-72.929687 35.109375-115.777343 0-51.289063-18.527344-98.21875-49.230469-134.515626 45.128907 38.21875 73.769531 95.285157 73.769531 159.054688 0 56.839844-22.75 108.347656-59.648437 145.9375zm0 0" fill="#69cc00"/><path d="m255.957031 512h-.75c-4.140625-.007812-7.492187-3.371094-7.484375-7.515625.007813-4.136719 3.363282-7.484375 7.496094-7.484375h.019531.71875l1.226563-.003906h.035156c4.128906 0 7.480469 3.335937 7.5 7.464844.019531 4.144531-3.324219 7.515624-7.464844 7.535156zm-25.675781-1.308594c-.257812 0-.515625-.015625-.773438-.042968-.683593-.066407-1.367187-.140626-2.050781-.214844-4.117187-.457032-7.085937-4.164063-6.628906-8.28125.453125-4.117188 4.15625-7.082032 8.277344-6.628906.644531.070312 1.285156.140624 1.929687.203124 4.117188.421876 7.117188 4.105469 6.695313 8.226563-.394531 3.859375-3.652344 6.738281-7.449219 6.738281zm51.878906-.070312c-3.789062 0-7.042968-2.859375-7.449218-6.710938-.433594-4.121094 2.550781-7.8125 6.671874-8.246094.636719-.066406 1.277344-.140624 1.917969-.210937 4.113281-.476563 7.832031 2.484375 8.300781 6.601563.46875 4.117187-2.488281 7.832031-6.601562 8.300781-.679688.078125-1.363281.152343-2.042969.226562-.265625.023438-.53125.039063-.796875.039063zm-78.535156-4.117188c-.515625 0-1.042969-.050781-1.570312-.164062-.671876-.144532-1.34375-.289063-2.011719-.4375-4.042969-.898438-6.597657-4.902344-5.699219-8.945313.894531-4.042969 4.902344-6.59375 8.941406-5.699219.632813.136719 1.265625.273438 1.898438.410157 4.050781.863281 6.632812 4.851562 5.769531 8.902343-.75 3.519532-3.863281 5.933594-7.328125 5.933594zm105.164062-.175781c-3.453124 0-6.554687-2.398437-7.320312-5.90625-.882812-4.046875 1.683594-8.042969 5.730469-8.925781.628906-.136719 1.257812-.277344 1.886719-.417969 4.035156-.914063 8.054687 1.617187 8.972656 5.65625.914062 4.039063-1.617188 8.054687-5.65625 8.972656-.671875.152344-1.339844.300781-2.011719.445313-.535156.117187-1.074219.175781-1.601563.175781zm-131.207031-6.875c-.78125 0-1.574219-.125-2.359375-.382813-.648437-.214843-1.300781-.433593-1.945312-.652343-3.925782-1.328125-6.027344-5.585938-4.695313-9.511719 1.328125-3.921875 5.582031-6.023438 9.507813-4.695312.613281.210937 1.230468.414062 1.84375.621093 3.933594 1.300781 6.066406 5.542969 4.765625 9.472657-1.039063 3.152343-3.972657 5.148437-7.117188 5.148437zm157.214844-.304687c-3.132813 0-6.054687-1.976563-7.105469-5.109376-1.324218-3.925781.789063-8.179687 4.714844-9.5.613281-.207031 1.226562-.414062 1.835938-.625 3.917968-1.351562 8.183593.730469 9.535156 4.644532 1.351562 3.917968-.730469 8.1875-4.644532 9.535156-.648437.222656-1.296874.445312-1.945312.664062-.792969.265626-1.597656.390626-2.390625.390626zm-182.34375-9.554688c-1.042969 0-2.101563-.21875-3.113281-.679688-.625-.285156-1.25-.574218-1.875-.867187-3.753906-1.75-5.375-6.210937-3.625-9.964844 1.75-3.753906 6.214844-5.378906 9.96875-3.628906.589844.277344 1.179687.550781 1.769531.820313 3.765625 1.722656 5.425781 6.171874 3.703125 9.9375-1.261719 2.757812-3.984375 4.382812-6.828125 4.382812zm207.417969-.417969c-2.832032 0-5.542969-1.609375-6.8125-4.34375-1.738282-3.761719-.105469-8.21875 3.652344-9.960937.585937-.273438 1.175781-.546875 1.761718-.824219 3.746094-1.769531 8.214844-.164063 9.984375 3.582031 1.765625 3.746094.164063 8.214844-3.582031 9.980469-.617188.292969-1.234375.582031-1.855469.871094-1.019531.472656-2.09375.695312-3.148437.695312zm-231.320313-12.125c-1.304687 0-2.628906-.339843-3.832031-1.058593-.59375-.355469-1.183594-.710938-1.769531-1.066407-3.539063-2.152343-4.664063-6.765625-2.515625-10.304687 2.152344-3.539063 6.761718-4.667969 10.304687-2.515625.554688.335937 1.109375.671875 1.664063 1.003906 3.558594 2.121094 4.722656 6.726563 2.597656 10.28125-1.402344 2.355469-3.894531 3.660156-6.449219 3.660156zm255.15625-.515625c-2.542969 0-5.027343-1.296875-6.433593-3.636718-2.132813-3.546876-.988282-8.15625 2.5625-10.289063.554687-.332031 1.105468-.667969 1.652343-1.003906 3.53125-2.167969 8.148438-1.058594 10.316407 2.472656 2.164062 3.53125 1.054687 8.148437-2.476563 10.3125-.585937.359375-1.171875.71875-1.761719 1.070313-1.210937.730468-2.542968 1.074218-3.859375 1.074218zm-277.542969-14.554687c-1.574218 0-3.164062-.492188-4.515624-1.515625-.546876-.414063-1.09375-.828125-1.640626-1.246094-3.285156-2.523438-3.90625-7.230469-1.382812-10.515625 2.523438-3.289063 7.230469-3.90625 10.515625-1.382813.515625.394532 1.03125.785157 1.546875 1.175782 3.308594 2.5 3.960938 7.199218 1.464844 10.507812-1.472656 1.949219-3.71875 2.976563-5.988282 2.976563zm299.875-.589844c-2.265624 0-4.5-1.019531-5.976562-2.960937-2.507812-3.296876-1.867188-8 1.429688-10.507813.515624-.390625 1.027343-.785156 1.539062-1.179687 3.277344-2.535157 7.988281-1.933594 10.523438 1.34375 2.53125 3.277343 1.929687 7.988281-1.347657 10.523437-.542969.417969-1.085937.835937-1.632812 1.25-1.359375 1.03125-2.953125 1.53125-4.535157 1.53125zm-320.496093-16.808594c-1.84375 0-3.691407-.675781-5.136719-2.039062-.503906-.472657-1-.945313-1.5-1.417969-2.992188-2.863281-3.097656-7.613281-.234375-10.605469 2.863281-2.992187 7.609375-3.101562 10.605469-.238281.464844.449219.933594.894531 1.402344 1.335938 3.019531 2.839843 3.164062 7.585937.324218 10.601562-1.472656 1.570312-3.464844 2.363281-5.460937 2.363281zm341.058593-.65625c-1.988281 0-3.972656-.789062-5.449218-2.34375-2.847656-3.011719-2.714844-7.757812.292968-10.605469.46875-.441406.933594-.886718 1.402344-1.335937 2.984375-2.871094 7.730469-2.78125 10.601563.203125 2.875 2.984375 2.78125 7.730469-.203125 10.601562-.496094.480469-.992188.953126-1.492188 1.425782-1.449218 1.371094-3.300781 2.054687-5.152344 2.054687zm-359.679687-18.867187c-2.117187 0-4.21875-.890625-5.703125-2.625-.445312-.519532-.886719-1.042969-1.328125-1.566406-2.671875-3.167969-2.269531-7.898438.898437-10.566407 3.167969-2.671875 7.898438-2.269531 10.570313.898438.417969.496093.835937.988281 1.257813 1.484375 2.691406 3.144531 2.324218 7.878906-.824219 10.574218-1.414063 1.207032-3.148438 1.800782-4.871094 1.800782zm378.242187-.71875c-1.71875 0-3.445312-.585938-4.855468-1.785156-3.15625-2.683594-3.539063-7.414063-.855469-10.574219.417969-.492188.835937-.984375 1.25-1.484375 2.660156-3.175782 7.390625-3.59375 10.566406-.9375 3.175781 2.660156 3.597657 7.386718.9375 10.566406-.441406.527344-.882812 1.050781-1.328125 1.574219-1.484375 1.742187-3.59375 2.640625-5.714844 2.640625zm-394.652343-20.695313c-2.390625 0-4.742188-1.144531-6.195313-3.265625-.390625-.566406-.773437-1.136718-1.15625-1.707031-2.3125-3.4375-1.394531-8.097656 2.042969-10.40625s8.097656-1.394531 10.40625 2.042969c.359375.535156.722656 1.066406 1.085937 1.597656 2.339844 3.417969 1.464844 8.085938-1.953124 10.425781-1.296876.886719-2.769532 1.3125-4.230469 1.3125zm410.988281-.78125c-1.449219 0-2.914062-.417969-4.203125-1.292969-3.425781-2.324218-4.320313-6.988281-1.996094-10.417968.363281-.535156.726563-1.070313 1.082031-1.609375 2.296876-3.445313 6.953126-4.375 10.402344-2.078125 3.445313 2.296875 4.378906 6.953125 2.078125 10.398437-.378906.574219-.765625 1.144531-1.152343 1.714844-1.449219 2.136719-3.808594 3.285156-6.210938 3.285156zm-424.988281-22.277343c-2.675781 0-5.265625-1.433594-6.617188-3.957032-.324219-.605468-.644531-1.210937-.964843-1.820312-1.921876-3.667969-.511719-8.199219 3.15625-10.125 3.667968-1.925782 8.203124-.511719 10.125 3.15625.300781.566406.601562 1.136718.90625 1.703125 1.957031 3.652343.582031 8.195312-3.070313 10.152343-1.125.605469-2.339844.890626-3.535156.890626zm438.90625-.84375c-1.183594 0-2.386719-.28125-3.507813-.875-3.65625-1.9375-5.050781-6.480469-3.109375-10.136719.300781-.574219.601563-1.144531.902344-1.71875 1.910156-3.675781 6.433594-5.105469 10.113281-3.199219 3.671875 1.910156 5.105469 6.441406 3.195313 10.113281-.320313.613281-.636719 1.222657-.960938 1.828125-1.347656 2.539063-3.945312 3.988282-6.632812 3.988282zm-450.328125-23.589844c-2.96875 0-5.78125-1.773438-6.957032-4.699219-.257812-.636719-.511718-1.273437-.761718-1.910156-1.515625-3.855469.382812-8.210938 4.242187-9.722657 3.851563-1.515624 8.207031.382813 9.71875 4.238282.234375.597656.472657 1.195312.710938 1.789062 1.550781 3.84375-.308594 8.214844-4.152344 9.761719-.917969.367187-1.867187.542969-2.800781.542969zm461.648437-.910156c-.921875 0-1.855469-.171876-2.765625-.53125-3.847656-1.527344-5.730468-5.886719-4.207031-9.734376.242187-.605468.480469-1.210937.710937-1.8125 1.5-3.863281 5.84375-5.78125 9.707032-4.28125 3.859375 1.496094 5.777344 5.84375 4.277344 9.703126-.246094.640624-.5 1.28125-.75 1.917968-1.167969 2.941406-3.988282 4.738282-6.972657 4.738282zm-470.34375-24.621094c-3.28125 0-6.292969-2.167969-7.21875-5.480469-.183593-.660156-.367187-1.324219-.546875-1.984375-1.085937-3.996094 1.273438-8.117188 5.273438-9.203125 3.996094-1.085937 8.113281 1.273437 9.199218 5.273437.171876.625.34375 1.246094.519532 1.871094 1.117187 3.988282-1.210938 8.125-5.203125 9.242188-.671875.1875-1.355469.28125-2.023438.28125zm478.917969-.972656c-.65625 0-1.324219-.089844-1.988281-.269532-3.996094-1.097656-6.34375-5.226562-5.246094-9.21875.171875-.625.339844-1.253906.507813-1.882812 1.066406-4.003906 5.175781-6.378906 9.179687-5.316406 4 1.066406 6.378906 5.179687 5.3125 9.179687-.175781.664063-.355469 1.328125-.539063 1.988281-.914062 3.332032-3.933593 5.519532-7.226562 5.519532zm-484.773438-25.367188c-3.605468 0-6.785156-2.601562-7.390624-6.273438-.113282-.679687-.222657-1.359374-.328126-2.039062-.644531-4.089844 2.152344-7.929688 6.242188-8.574219 4.09375-.640625 7.929688 2.15625 8.574219 6.246094.101562.636719.203125 1.277344.308593 1.914063.675782 4.085937-2.085937 7.945312-6.175781 8.625-.410156.070312-.824219.101562-1.230469.101562zm490.507813-1.011719c-.398437 0-.800781-.03125-1.207031-.097656-4.085938-.660156-6.867188-4.507813-6.207032-8.597656.101563-.640625.203126-1.277344.300782-1.921875.625-4.09375 4.449218-6.90625 8.546875-6.28125 4.09375.625 6.90625 4.453125 6.28125 8.546875-.105469.683593-.210938 1.363281-.320313 2.046875-.597656 3.683594-3.78125 6.304687-7.394531 6.304687zm-493.453125-25.804687c-3.953125 0-7.261719-3.09375-7.480469-7.089844-.0390622-.683594-.0742185-1.371094-.1054685-2.058594-.1914065-4.136718 3.0039065-7.648437 7.1406255-7.84375 4.148437-.210937 7.648437 3.003906 7.84375 7.140625.027343.648438.0625 1.292969.097656 1.9375.230468 4.136719-2.9375 7.671875-7.074219 7.902344-.140625.007813-.28125.011719-.421875.011719zm496.296875-1.042969c-.128906 0-.261719-.003906-.394531-.011719-4.136719-.214844-7.316406-3.742187-7.101563-7.878906.035157-.644531.066407-1.292969.09375-1.9375.183594-4.136719 3.699219-7.335938 7.824219-7.164062 4.136719.183593 7.34375 3.683593 7.160156 7.824218-.027344.683594-.0625 1.371094-.097656 2.058594-.210938 4-3.519531 7.109375-7.484375 7.109375zm-496.308594-25.945313c-.132812 0-.265625 0-.398437-.007812-4.136719-.214844-7.316406-3.746094-7.0976565-7.882812.0312505-.617188.0664065-1.234376.1015625-1.851563l.015625-.234375c.265625-4.136719 3.824219-7.277344 7.96875-7 4.132813.265625 7.265625 3.835938 7 7.96875l-.007813.152344c-.039062.59375-.070312 1.171875-.101562 1.75-.210938 4.003906-3.519531 7.105468-7.480469 7.105468zm496.257813-1.042968c-3.953125 0-7.257813-3.085938-7.480469-7.082032-.039063-.644531-.078125-1.289062-.117187-1.933593-.261719-4.136719 2.878906-7.699219 7.011718-7.957031 4.136719-.257813 7.695313 2.875 7.957032 7.007812.042968.683594.085937 1.367188.121093 2.050781.234375 4.132813-2.933593 7.671875-7.070312 7.90625-.140625.003907-.28125.007813-.421875.007813zm-493.402344-25.78125c-.394531 0-.796875-.03125-1.199219-.097656-4.089843-.65625-6.871093-4.503907-6.214843-8.59375.109374-.679688.222656-1.359376.335937-2.035157.695313-4.085937 4.566406-6.832031 8.648437-6.140625 4.085938.691406 6.832032 4.5625 6.140626 8.648438-.105469.632812-.210938 1.273437-.316407 1.910156-.589843 3.683594-3.777343 6.308594-7.394531 6.308594zm490.445312-1.03125c-3.605468 0-6.785156-2.601563-7.390624-6.273438-.105469-.636718-.214844-1.269531-.324219-1.90625-.710938-4.082031 2.019531-7.964844 6.097656-8.679687 4.085937-.707031 7.96875 2.019531 8.679687 6.101562.117188.675781.230469 1.351563.34375 2.03125.679688 4.085938-2.085937 7.945313-6.171874 8.625-.414063.070313-.828126.101563-1.234376.101563zm-484.714843-25.332032c-.660157 0-1.328125-.089843-1.992188-.273437-3.996093-1.097656-6.339843-5.226563-5.242187-9.21875.183594-.667969.367187-1.335937.558594-2 1.132812-3.984375 5.285156-6.292969 9.265624-5.160156 3.984376 1.132812 6.292969 5.28125 5.160157 9.265625-.175781.625-.351563 1.246094-.523438 1.871094-.914062 3.328124-3.933593 5.515624-7.226562 5.515624zm478.859375-1c-3.277344 0-6.289063-2.164062-7.21875-5.476562-.175782-.621094-.351563-1.242188-.53125-1.859375-1.152344-3.980469 1.140625-8.140625 5.117187-9.292969 3.980469-1.152344 8.140625 1.140625 9.289063 5.117188.191406.660156.382812 1.320312.566406 1.980468 1.121094 3.988282-1.207031 8.128907-5.195312 9.25-.675782.1875-1.359376.28125-2.027344.28125zm-470.28125-24.609374c-.921875 0-1.859375-.171876-2.769532-.53125-3.847656-1.53125-5.730468-5.890626-4.199218-9.742188.253906-.636719.511718-1.277344.769531-1.917969 1.5625-3.835937 5.9375-5.679687 9.777344-4.117187 3.835937 1.558594 5.679687 5.9375 4.117187 9.773437-.242187.601563-.484375 1.203125-.726562 1.804688-1.167969 2.9375-3.988282 4.730469-6.96875 4.730469zm461.582031-.929688c-2.96875 0-5.78125-1.773438-6.957031-4.699219-.242188-.597656-.488282-1.195312-.734375-1.792969-1.578125-3.828124.246093-8.214843 4.074219-9.792968 3.832031-1.578125 8.214843.246094 9.792968 4.074218.261719.632813.523438 1.269532.777344 1.902344 1.550781 3.84375-.308594 8.210938-4.152344 9.761719-.917968.371094-1.867187.546875-2.800781.546875zm-450.257813-23.578125c-1.1875 0-2.390624-.28125-3.507812-.875-3.660156-1.941406-5.054688-6.480469-3.113281-10.140625.320312-.609375.648437-1.21875.976562-1.824219 1.96875-3.640625 6.523438-4.996093 10.164063-3.027343 3.644531 1.972656 5 6.523437 3.027344 10.167968-.308594.566406-.613282 1.136719-.914063 1.707032-1.347656 2.542968-3.949219 3.992187-6.632813 3.992187zm438.828126-.863281c-2.675782 0-5.265626-1.433594-6.617188-3.957032-.304688-.570312-.613281-1.136718-.921875-1.707031-1.984375-3.632812-.648437-8.191406 2.984375-10.175781 3.636719-1.988281 8.191406-.648438 10.175781 2.984375.332031.605469.65625 1.207031.984375 1.8125 1.953125 3.652344.582032 8.199219-3.070312 10.152344-1.128906.605469-2.339844.890625-3.535156.890625zm-424.902344-22.261719c-1.449219 0-2.914063-.417969-4.203125-1.296875-3.429688-2.328125-4.320313-6.992188-1.992188-10.417969.386719-.570312.777344-1.136719 1.167969-1.703125 2.355469-3.40625 7.023438-4.261718 10.433594-1.90625 3.40625 2.355469 4.257812 7.027344 1.902344 10.433594-.367188.535156-.730469 1.066406-1.09375 1.601562-1.453126 2.136719-3.8125 3.289063-6.214844 3.289063zm16.359375-21.472656c-1.71875 0-3.449219-.589844-4.859375-1.792969-3.152344-2.683594-3.53125-7.417969-.84375-10.570312.441406-.519532.890625-1.039063 1.335937-1.558594 2.707031-3.136719 7.445313-3.476563 10.578125-.769532 3.132813 2.707032 3.476563 7.445313.769532 10.578126-.425782.492187-.847657.980468-1.269532 1.476562-1.484375 1.742188-3.589844 2.636719-5.710937 2.636719zm18.578125-19.574219c-1.988282 0-3.972656-.789062-5.449219-2.347656-2.847656-3.011719-2.714844-7.757813.296875-10.601563.5-.472656 1-.941406 1.5-1.410156 3.03125-2.820313 7.777344-2.652344 10.601562.378906 2.820313 3.035157 2.652344 7.777344-.378906 10.601563-.476562.441406-.949218.882812-1.417968 1.328125-1.449219 1.371093-3.300782 2.050781-5.152344 2.050781zm20.582031-17.457031c-2.265625 0-4.503906-1.019531-5.976563-2.960938-2.507812-3.300781-1.863281-8.003906 1.433594-10.511719.546875-.414062 1.09375-.824218 1.644532-1.238281 3.316406-2.476562 8.015624-1.800781 10.496093 1.519531 2.480469 3.316407 1.800781 8.015626-1.519531 10.496094-.515625.386719-1.035156.777344-1.546875 1.167969-1.355469 1.03125-2.953125 1.527344-4.53125 1.527344zm22.332031-15.128907c-2.542968 0-5.027344-1.296874-6.433594-3.636718-2.132812-3.550782-.984374-8.160156 2.5625-10.292969.589844-.355469 1.179688-.707031 1.769532-1.054687 3.570312-2.101563 8.167968-.917969 10.269531 2.652343 2.105469 3.566407.917969 8.164063-2.648437 10.269531-.554688.328126-1.109376.65625-1.660157.988282-1.210937.726562-2.542969 1.074218-3.859375 1.074218zm234.910156-11.246093c-1.082031 0-2.179687-.234375-3.222656-.730469-.582031-.28125-1.167968-.554688-1.757812-.832031-3.75-1.753907-5.371094-6.21875-3.617188-9.96875 1.753906-3.753907 6.222656-5.371094 9.972656-3.617188.621094.289063 1.242188.582031 1.859376.878907 3.738281 1.78125 5.324218 6.257812 3.542968 9.996093-1.285156 2.699219-3.976562 4.273438-6.777344 4.273438zm-211.078124-1.378907c-2.832032 0-5.546876-1.613281-6.8125-4.355468-1.738282-3.761719-.097657-8.21875 3.664062-9.953125.621094-.289063 1.246094-.574219 1.871094-.855469 3.777344-1.707031 8.21875-.027344 9.921875 3.746094 1.707031 3.773437.027343 8.21875-3.746094 9.921875-.585937.265625-1.171875.535156-1.757813.804687-1.019531.46875-2.085937.691406-3.140624.691406zm186.128906-8.902343c-.816406 0-1.648438-.132813-2.46875-.417969-.613282-.214844-1.226563-.425781-1.839844-.636719-3.921875-1.332031-6.019531-5.59375-4.683594-9.515625 1.335938-3.921875 5.597656-6.015625 9.515625-4.683594.652344.222657 1.296875.445313 1.945313.671876 3.914062 1.363281 5.976562 5.636718 4.613281 9.550781-1.078125 3.09375-3.980469 5.03125-7.082031 5.03125zm-161.0625-1.058594c-3.132813 0-6.054688-1.980469-7.109375-5.117187-1.316407-3.925782.796875-8.179688 4.722656-9.496094.652344-.21875 1.304687-.4375 1.957031-.648438 3.9375-1.28125 8.171875.863282 9.457032 4.804688 1.285156 3.933594-.863282 8.171875-4.800782 9.457031-.613281.199219-1.226562.402344-1.839844.605469-.792968.265625-1.597656.394531-2.386718.394531zm135.140625-6.433594c-.558594 0-1.125-.0625-1.691407-.191406-.628906-.148437-1.261718-.289063-1.894531-.433594-4.042969-.898437-6.59375-4.902343-5.695312-8.945312.898437-4.042969 4.910156-6.59375 8.949219-5.695313.667968.148438 1.339843.300782 2.011718.457032 4.035156.929687 6.550782 4.953124 5.621094 8.992187-.800781 3.46875-3.886719 5.816406-7.300781 5.816406zm-109.132813-.738281c-3.453125 0-6.558594-2.398438-7.324218-5.90625-.878907-4.046875 1.6875-8.042969 5.734374-8.925781.671876-.144531 1.34375-.289063 2.015626-.429688 4.058593-.84375 8.03125 1.753907 8.875 5.808594.847656 4.054687-1.753907 8.027344-5.808594 8.875-.632813.132813-1.261719.265625-1.890625.402344-.539063.117187-1.074219.175781-1.601563.175781zm82.542969-3.894531c-.292969 0-.589844-.015625-.890625-.050781-.644531-.078126-1.289062-.152344-1.9375-.222657-4.117188-.457031-7.082031-4.164062-6.625-8.28125.457031-4.117187 4.15625-7.089843 8.28125-6.625.679688.074219 1.363281.152344 2.046875.234375 4.113281.488282 7.050781 4.214844 6.5625 8.328125-.449219 3.8125-3.691406 6.617188-7.4375 6.617188zm-55.90625-.394531c-3.789063 0-7.042969-2.863282-7.449219-6.714844-.433594-4.117188 2.550782-7.808594 6.671875-8.246094.679688-.070312 1.363281-.140625 2.046875-.207031 4.125-.402344 7.789063 2.617187 8.191406 6.738281.402344 4.125-2.617187 7.789062-6.738281 8.191406-.644531.0625-1.285156.128906-1.925781.195313-.265625.027343-.53125.042969-.796875.042969zm28.960937-1.351563c-.027343 0-.058593 0-.085937 0-.648437-.007813-1.296875-.011719-1.941406-.015625-4.144531-.015625-7.488281-3.386719-7.472657-7.527344.015626-4.140625 3.339844-7.503906 7.523438-7.472656.683594.00390625 1.371094.0078125 2.054688.015625 4.140624.0429688 7.460937 3.441406 7.417968 7.582031-.046875 4.113282-3.394531 7.417969-7.496094 7.417969zm0 0" fill="#6163aa"/><path d="m337.914062 330.179688h-23.691406c-4.140625 0-7.5-3.359376-7.5-7.5 0-4.144532 3.359375-7.5 7.5-7.5h23.691406c4.140626 0 7.5 3.355468 7.5 7.5 0 4.140624-3.359374 7.5-7.5 7.5zm0 0" fill="#84e507"/><path d="m365.847656 243.71875c-.015625 0-.027344 0-.039062 0-4.144532-.023438-7.53125-3.398438-7.511719-7.539062.023437-4.128907 3.328125-7.460938 7.453125-7.460938h.039062.09375c4.144532.019531 7.484376 3.394531 7.460938 7.535156-.019531 4.132813-3.375 7.464844-7.496094 7.464844zm0 0" fill="#edff85"/><path d="m225.59375 422.855469c-4.144531 0-7.550781-3.355469-7.550781-7.5 0-4.140625 3.3125-7.5 7.453125-7.5h.097656c4.140625 0 7.5 3.359375 7.5 7.5-.003906 4.144531-3.359375 7.5-7.5 7.5zm0 0" fill="#c5ee09"/><path d="m240.09375 409.4375c-.015625 0-.027344 0-.039062 0-4.144532-.019531-7.53125-3.394531-7.511719-7.535156.023437-4.128906 3.328125-7.464844 7.453125-7.464844h.039062.09375c4.140625.023438 7.484375 3.398438 7.460938 7.539062-.019532 4.128907-3.375 7.460938-7.496094 7.460938zm0 0" fill="#c5ee09"/><path d="m349.445312 258.332031c-4.144531 0-7.550781-3.359375-7.550781-7.5s3.3125-7.5 7.453125-7.5h.097656c4.140626 0 7.5 3.359375 7.5 7.5s-3.359374 7.5-7.5 7.5zm0 0" fill="#69cc00"/><path d="m172.429688 200.152344h-23.773438c-4.140625 0-7.5-3.359375-7.5-7.5s3.359375-7.5 7.5-7.5h23.773438c4.140624 0 7.5 3.359375 7.5 7.5s-3.359376 7.5-7.5 7.5zm0 0" fill="#84e507"/><path d="m471.5 81.382812c0 26.269532-21.289062 47.570313-47.558594 47.570313-3.351562 0-6.621094-.351563-9.78125-1.011719-21.578125-4.5-37.789062-23.636718-37.789062-46.558594 0-1.148437.042968-2.277343.121094-3.410156 1.75-24.675781 22.328124-44.148437 47.449218-44.148437 26.269532 0 47.558594 21.289062 47.558594 47.558593zm0 0" fill="#ffe5c0"/><path d="m421.261719 107.742188c0 7.652343-2.660157 14.671874-7.097657 20.199218-21.582031-4.5-37.789062-23.636718-37.789062-46.558594 0-1.148437.039062-2.28125.117188-3.410156 3.839843-1.609375 8.070312-2.5 12.5-2.5 17.820312 0 32.269531 14.453125 32.269531 32.269532zm0 0" fill="#ffc183"/><path d="m421.261719 107.742188c0 7.652343-2.660157 14.671874-7.097657 20.199218-4.8125-1-9.351562-2.730468-13.5-5.070312 2.398438-4.507813 3.757813-9.660156 3.757813-15.128906 0-14.910157-10.109375-27.460938-23.847656-31.160157 2.679687-.730469 5.507812-1.109375 8.417969-1.109375 17.820312 0 32.269531 14.453125 32.269531 32.269532zm0 0" fill="#fda736"/><path d="m471.511719 81.382812c0 1.191407-.042969 2.371094-.132813 3.542969-1.808594 24.617188-22.359375 44.027344-47.4375 44.027344-4.058594 0-7.980468-.5-11.738281-1.449219 20.597656-5.222656 35.835937-23.890625 35.835937-46.121094 0-22.230468-15.238281-40.886718-35.835937-46.109374 3.757813-.949219 7.679687-1.457032 11.738281-1.457032 11.839844 0 22.667969 4.328125 30.988282 11.480469 10.152343 8.726563 16.582031 21.65625 16.582031 36.085937zm0 0" fill="#ffd4a1"/><g fill="#fda736"><path d="m471.511719 81.382812c0 1.191407-.042969 2.371094-.132813 3.542969-12.796875-.070312-23.15625-10.460937-23.15625-23.28125 0-6.378906 2.570313-12.148437 6.707032-16.347656 10.152343 8.726563 16.582031 21.65625 16.582031 36.085937zm0 0"/><path d="m423.597656 69.144531h-.144531c-4.144531 0-7.5-3.359375-7.5-7.5 0-4.144531 3.355469-7.5 7.5-7.5h.144531c4.144532 0 7.5 3.355469 7.5 7.5 0 4.140625-3.355468 7.5-7.5 7.5zm0 0"/></g></svg>