<?xml version="1.0" encoding="utf-8"?>
<!-- Generator: Adobe Illustrator 19.0.0, SVG Export Plug-In . SVG Version: 6.00 Build 0)  -->
<!DOCTYPE svg PUBLIC "-//W3C//DTD SVG 1.1//EN" "http://www.w3.org/Graphics/SVG/1.1/DTD/svg11.dtd">
<svg version="1.1" id="Layer_1" xmlns="http://www.w3.org/2000/svg" xmlns:xlink="http://www.w3.org/1999/xlink" x="0px" y="0px"
	 viewBox="0 0 54 54" style="enable-background:new 0 0 54 54;" xml:space="preserve">
<style type="text/css">
	.st0{opacity:0.6;fill:#FFFFFF;}
	.st1{fill:none;stroke:#FFFFFF;stroke-width:1.75;stroke-linejoin:round;}
	.st2{fill:none;stroke:#FFFFFF;stroke-width:1.75;stroke-miterlimit:10;}
	.st3{fill:none;}
</style>
<g id="XMLID_724_">
	<path id="XMLID_774_" class="st0" d="M15.8,18.8c-0.2-0.3-0.1-0.6,0.2-0.8c0.1-0.1,0.2-0.1,0.3-0.1h4.3c0.5,0,1,0.4,1.2,0.9
		l3.8,10.7c0.2,0.5,0.5,0.5,0.6,0l9.2-24.2c0.2-0.5,0.7-0.8,1.3-0.8h4.2c0.3,0,0.6,0.2,0.6,0.5c0,0.1,0,0.2-0.1,0.3L28.8,36.9
		c-0.2,0.5-0.7,0.8-1.2,0.8h-3.2c-0.5,0-1-0.4-1.2-0.8L15.8,18.8z"/>
	<g id="XMLID_770_">
		<polyline id="XMLID_773_" class="st1" points="38.6,12.5 42.2,12.5 42.2,42.9 11.8,42.9 11.8,12.5 32.8,12.5 		"/>
		<path id="XMLID_772_" class="st2" d="M15.8,18.8c-0.2-0.3-0.1-0.6,0.2-0.8c0.1-0.1,0.2-0.1,0.3-0.1h4.3c0.5,0,1,0.4,1.2,0.9
			l3.8,10.7c0.2,0.5,0.5,0.5,0.6,0l9.2-24.2c0.2-0.5,0.7-0.8,1.3-0.8h4.2c0.3,0,0.6,0.2,0.6,0.5c0,0.1,0,0.2-0.1,0.3L28.8,36.9
			c-0.2,0.5-0.7,0.8-1.2,0.8h-3.2c-0.5,0-1-0.4-1.2-0.8L15.8,18.8z"/>
		<rect id="XMLID_771_" y="0" class="st3" width="54" height="54"/>
	</g>
</g>
</svg>
