<?xml version="1.0" encoding="utf-8"?>
<!-- Generator: Adobe Illustrator 19.0.0, SVG Export Plug-In . SVG Version: 6.00 Build 0)  -->
<!DOCTYPE svg PUBLIC "-//W3C//DTD SVG 1.1//EN" "http://www.w3.org/Graphics/SVG/1.1/DTD/svg11.dtd">
<svg version="1.1" id="Layer_1" xmlns="http://www.w3.org/2000/svg" xmlns:xlink="http://www.w3.org/1999/xlink" x="0px" y="0px"
	 viewBox="0 0 54 54" style="enable-background:new 0 0 54 54;" xml:space="preserve">
<style type="text/css">
	.st0{fill:#00AACA;}
	.st1{fill:none;stroke:#464646;stroke-width:1.75;stroke-linecap:round;stroke-linejoin:round;}
	.st2{fill:none;stroke:#464646;stroke-width:2;stroke-linecap:round;stroke-linejoin:round;}
	.st3{fill:none;}
</style>
<g id="XMLID_304_">
	<g id="XMLID_329_">
		<rect id="XMLID_42_" x="7.6" y="23.7" class="st0" width="38.9" height="3.5"/>
		<rect id="XMLID_41_" x="8" y="23.7" class="st1" width="38" height="3.5"/>
		<path id="XMLID_39_" class="st0" d="M32.7,32.1h6.4c0.7,0,1.2,0.5,1.2,1.2v3.5c0,0.7-0.5,1.2-1.2,1.2h-6.4c-0.7,0-1.2-0.5-1.2-1.2
			v-3.5C31.5,32.6,32,32.1,32.7,32.1z"/>
		<g id="XMLID_317_">
			<path id="XMLID_38_" class="st2" d="M20,17h-7.5C9.4,17,8,18.5,8,21.6v15.8c0,3.1,1.4,4.6,4.5,4.6h29c3.1,0,4.5-1.4,4.5-4.6V21.6
				c0-3.1-1.4-4.6-4.5-4.6H35"/>
		</g>
		<g id="XMLID_40_">
			<polyline id="XMLID_37_" class="st1" points="22.8,14 27,18.8 31.2,14 			"/>
			<line id="XMLID_36_" class="st1" x1="27" y1="6.3" x2="27" y2="18.8"/>
		</g>
	</g>
	<rect id="XMLID_439_" class="st3" width="54" height="54"/>
</g>
</svg>
