<?xml version="1.0" encoding="utf-8"?>
<!-- Generator: Adobe Illustrator 19.0.0, SVG Export Plug-In . SVG Version: 6.00 Build 0)  -->
<!DOCTYPE svg PUBLIC "-//W3C//DTD SVG 1.1//EN" "http://www.w3.org/Graphics/SVG/1.1/DTD/svg11.dtd">
<svg version="1.1" id="Layer_1" xmlns="http://www.w3.org/2000/svg" xmlns:xlink="http://www.w3.org/1999/xlink" x="0px" y="0px"
	 viewBox="0 0 54 54" style="enable-background:new 0 0 54 54;" xml:space="preserve">
<style type="text/css">
	.st0{opacity:0.6;fill:#FFFFFF;}
	.st1{opacity:0.6;}
	.st2{fill:#FFFFFF;}
	.st3{fill:none;stroke:#FFFFFF;stroke-width:2;stroke-linecap:round;stroke-linejoin:round;}
	.st4{fill:none;}
</style>
<g id="XMLID_204_">
	<polygon id="XMLID_434_" class="st0" points="40,27.2 26.8,27.2 18,20 31.3,20 	"/>
	<g id="XMLID_235_">
		<g id="XMLID_276_" class="st1">
			<path id="XMLID_279_" class="st0" d="M26,27v15h14V27H26z M34,37.7V39h-1v-1.2c-0.9-0.1-1.7-0.4-2.4-0.9l0.7-1.1
				c0.5,0.4,0.9,0.6,1.7,0.7v-1.1c-1-0.3-2.2-0.8-2.2-1.9c0-1,1.2-1.8,2.2-1.9V31h1v0.5c0.6,0,1.3,0.3,1.8,0.7l-0.6,1.1
				c-0.6-0.3-1-0.4-1.2-0.4v1c1,0.3,2.1,0.8,2.1,2C36.1,36.9,35,37.6,34,37.7z"/>
			<path id="XMLID_278_" class="st2" d="M33.9,35.5v1c0.4-0.1,0.6-0.2,0.6-0.5h0C34.5,35.8,34.4,35.6,33.9,35.5z"/>
			<path id="XMLID_277_" class="st2" d="M32.5,33.3c0,0.2,0.1,0.4,0.6,0.5v-0.9C32.6,32.8,32.5,33,32.5,33.3z"/>
		</g>
		<polygon id="XMLID_249_" class="st3" points="52.6,27.3 11.1,27.3 1.4,19.8 42.9,19.8 		"/>
		<polyline id="XMLID_247_" class="st3" points="1.4,19.8 1.4,34.6 11.1,42.5 52.6,42.5 52.6,27.3 		"/>
		<line id="XMLID_246_" class="st3" x1="11.1" y1="27.3" x2="11.1" y2="42.5"/>
		<polygon id="XMLID_245_" class="st3" points="40,27.4 26.8,27.4 18,20.2 31.3,20.2 		"/>
		<rect id="XMLID_244_" x="26.3" y="27.3" class="st3" width="13.5" height="15.2"/>
		<path id="XMLID_243_" class="st3" d="M18,20.2c-5.9,0-10.6-4.8-10.6-10.6c0-0.7,0.1-1.4,0.2-2.1l8.2,7.1
			c-1.2,5.7,2.5,11.3,8.3,12.5c0.7,0.1,1.4,0.2,2.1,0.2"/>
		<polyline id="XMLID_242_" class="st3" points="1.6,23.5 10.5,30.6 26.2,30.6 		"/>
		<polyline id="XMLID_241_" class="st3" points="1.6,27.3 10.5,34.4 26.2,34.4 		"/>
		<polyline id="XMLID_240_" class="st3" points="1.6,31.2 10.5,38.3 26.2,38.3 		"/>
		<line id="XMLID_239_" class="st3" x1="13.4" y1="19.8" x2="23" y2="27.3"/>
		<line id="XMLID_238_" class="st3" x1="39.9" y1="30.6" x2="52.4" y2="30.6"/>
		<line id="XMLID_237_" class="st3" x1="39.9" y1="34.4" x2="52.4" y2="34.4"/>
		<line id="XMLID_236_" class="st3" x1="39.9" y1="38.3" x2="52.4" y2="38.3"/>
	</g>
	<rect id="XMLID_205_" class="st4" width="54" height="54"/>
</g>
</svg>
