<?xml version="1.0" encoding="UTF-8"?>
<svg width="240px" height="240px" viewBox="0 0 240 240" version="1.1" xmlns="http://www.w3.org/2000/svg" xmlns:xlink="http://www.w3.org/1999/xlink">
    <!-- Generator: Sketch 50.2 (55047) - http://www.bohemiancoding.com/sketch -->
    <title>marketplace-cc</title>
    <desc>Created with Sketch.</desc>
    <defs></defs>
    <g id="marketplace-cc" stroke="none" stroke-width="1" fill="none" fill-rule="evenodd">
        <circle id="circle" fill="#DEEFFF" cx="120" cy="120" r="120"></circle>
        <g id="illustration" transform="translate(41.250000, 63.750000)" stroke="#54A0E8" stroke-width="4.5">
            <path d="M135.718085,25.6433824 L149.635019,25.6433824 C153.978519,25.6433824 157.5,29.1237622 157.5,33.4172574 L157.5,104.726125 C157.5,109.01962 153.978519,112.5 149.635019,112.5 L29.6468959,112.5 C25.303396,112.5 21.7819149,109.01962 21.7819149,104.726125 L21.7819149,87.2702206" id="Stroke-3"></path>
            <path d="M63.8724329,86.8566176 L7.86501384,86.8566176 C3.52149579,86.8566176 0,83.3762602 0,79.0827927 L0,7.77438491 C0,3.48091742 3.52149579,0 7.86501384,0 L127.853638,0 C132.197156,0 135.718085,3.48091742 135.718085,7.77438491 L135.718085,79.0827927 C135.718085,83.3762602 132.197156,86.8566176 127.853638,86.8566176 L75.6175504,86.8566176 L63.8724329,86.8566176 Z" id="Stroke-1"></path>
            <path d="M31.9904069,47.9779412 L16.6000186,47.9779412 C14.8347345,47.9779412 13.4042553,46.5323575 13.4042553,44.7496972 L13.4042553,33.8348617 C13.4042553,32.0522013 14.8347345,30.6066176 16.6000186,30.6066176 L31.9904069,30.6066176 C33.7551312,30.6066176 35.1861702,32.0522013 35.1861702,33.8348617 L35.1861702,44.7496972 C35.1861702,46.5323575 33.7551312,47.9779412 31.9904069,47.9779412 Z" id="Stroke-9"></path>
            <path d="M101.369681,58.7316176 L122.31383,58.7316176" id="Stroke-11" stroke-linecap="round"></path>
            <path d="M72.0478723,58.7316176 L92.9920213,58.7316176" id="Stroke-13" stroke-linecap="round"></path>
            <path d="M42.7260638,58.7316176 L63.6702128,58.7316176" id="Stroke-15" stroke-linecap="round"></path>
            <path d="M13.4042553,58.7316176 L34.3484043,58.7316176" id="Stroke-17" stroke-linecap="round"></path>
        </g>
    </g>
</svg>