<?xml version="1.0" encoding="utf-8"?>
<!-- Generator: Adobe Illustrator 19.0.0, SVG Export Plug-In . SVG Version: 6.00 Build 0)  -->
<!DOCTYPE svg PUBLIC "-//W3C//DTD SVG 1.1//EN" "http://www.w3.org/Graphics/SVG/1.1/DTD/svg11.dtd">
<svg version="1.1" id="Layer_1" xmlns="http://www.w3.org/2000/svg" xmlns:xlink="http://www.w3.org/1999/xlink" x="0px" y="0px"
	 viewBox="0 0 54 54" style="enable-background:new 0 0 54 54;" xml:space="preserve">
<style type="text/css">
	.st0{opacity:0.6;fill:#FFFFFF;}
	.st1{fill:none;stroke:#FFFFFF;stroke-width:1.75;stroke-linecap:round;stroke-linejoin:round;}
	.st2{fill:none;}
</style>
<g id="XMLID_511_">
	<g id="XMLID_58_">
		<polygon id="XMLID_80_" class="st0" points="26.5,45.7 34.5,51.4 34.7,31.8 26.6,35.6 		"/>
		<polyline id="XMLID_79_" class="st1" points="18.7,31.5 18.4,50.8 26.5,45.1 34.4,50.9 34.7,31.8 		"/>
		<path id="XMLID_61_" class="st1" d="M18.2,6.5c2.5,0.2,4.9-0.7,6.6-2.6c0.9-1.4,2.8-1.7,4.2-0.8c0.3,0.2,0.6,0.5,0.8,0.9
			c1.6,1.9,4,2.9,6.5,2.8c1.6-0.3,3.2,0.8,3.4,2.5c0.1,0.3,0.1,0.7,0,1.1c-0.2,2.5,0.7,4.9,2.6,6.6c1.4,0.9,1.7,2.8,0.8,4.2
			c-0.2,0.3-0.5,0.6-0.9,0.8c-1.9,1.6-2.9,4-2.8,6.4c0.3,1.6-0.8,3.2-2.4,3.5c-0.4,0.1-0.7,0.1-1.1,0c-2.5-0.2-4.9,0.7-6.6,2.6
			c-0.9,1.4-2.8,1.7-4.2,0.8c-0.3-0.2-0.6-0.5-0.8-0.9c-1.6-1.9-4-2.9-6.5-2.8c-1.6,0.3-3.2-0.8-3.5-2.4c-0.1-0.4-0.1-0.7,0-1.1
			c0.2-2.5-0.7-4.9-2.6-6.6c-1.4-0.9-1.7-2.8-0.8-4.2c0.2-0.3,0.5-0.6,0.9-0.8c1.9-1.6,2.9-4,2.8-6.5c-0.3-1.6,0.8-3.2,2.5-3.4
			C17.5,6.4,17.8,6.4,18.2,6.5z"/>
		<circle id="XMLID_60_" class="st1" cx="26.7" cy="19.3" r="9.8"/>
		<path id="XMLID_59_" class="st0" d="M33.3,17.1c-0.1-0.2-0.2-0.3-0.4-0.3l-4-0.6L27,12.5c-0.1-0.2-0.3-0.3-0.4-0.3
			c-0.2,0-0.4,0.1-0.4,0.3l-1.8,3.7l-4,0.6c-0.2,0-0.3,0.2-0.4,0.3c-0.1,0.2,0,0.4,0.1,0.5l2.9,2.8l-0.7,4c0,0.2,0,0.4,0.2,0.5
			c0.1,0.1,0.2,0.1,0.3,0.1c0.1,0,0.2,0,0.2-0.1l3.6-1.9l3.6,1.9c0.2,0.1,0.4,0.1,0.5,0c0.2-0.1,0.2-0.3,0.2-0.5l-0.7-4l2.9-2.8
			C33.3,17.5,33.3,17.3,33.3,17.1z"/>
	</g>
	<rect id="XMLID_57_" class="st2" width="54" height="54"/>
</g>
</svg>
