<?xml version="1.0" encoding="UTF-8"?>
<svg width="240px" height="240px" viewBox="0 0 240 240" version="1.1" xmlns="http://www.w3.org/2000/svg" xmlns:xlink="http://www.w3.org/1999/xlink">
    <!-- Generator: Sketch 50.2 (55047) - http://www.bohemiancoding.com/sketch -->
    <title>marketplace-savings</title>
    <desc>Created with Sketch.</desc>
    <defs>
        <path d="M134.260741,56.040428 C135.982503,60.5946454 136.924681,65.531082 136.924681,70.6873359 C136.924681,87.1483777 127.321177,101.370074 113.405793,108.066743 L113.405793,124 L87.9274152,124 L87.9274152,112.152979 L64.4085281,112.152979 L64.4085281,124 L38.9294368,124 L38.9294368,108.066743 C28.80112,103.191323 20.9567373,94.3315202 17.4377818,83.5215496 L2.6717171,83.5215496 C1.33044959,79.3327482 0.690833977,74.8383874 0.754296395,70.0370424 C0.816332692,65.2349852 1.45523524,60.8446143 2.6717171,56.863793 L17.7736335,56.863793 C20.2408241,49.8921917 24.5220417,43.7760147 30.0504027,39.0807965 C27.4669831,34.8627925 26.5257427,26.9196685 27.2252555,15.25 C38.3511444,17.2564365 44.1176677,22.5414061 44.5248255,31.1013472 C48.4402428,29.8798213 52.6052314,29.2209807 56.9235281,29.2209807 L63.1906202,29.2209807 L91.1240671,29.2209807 L95.4124152,29.2209807 C108.92828,29.2209807 120.935633,35.6732837 128.515664,45.6625007 L137.796041,43.8230238 C137.889452,43.8045051 137.982863,43.795958 138.075561,43.795958 C138.742273,43.795958 139.338392,44.2646251 139.472447,44.9434089 C139.534483,45.2525298 139.490987,45.5744713 139.349801,45.8565263 L134.260741,56.040428 Z" id="path-1"></path>
    </defs>
    <g id="marketplace-savings" stroke="none" stroke-width="1" fill="none" fill-rule="evenodd">
        <circle id="circle" fill="#FAE3E3" cx="120" cy="120" r="120"></circle>
        <g id="illustration" transform="translate(48.000000, 56.000000)">
            <circle id="coin" stroke="#FF9999" stroke-width="4.5" cx="79.5" cy="11.5" r="11.25"></circle>
            <mask id="mask-2" fill="white">
                <use xlink:href="#path-1"></use>
            </mask>
            <use id="pig" stroke="#FF9999" stroke-width="4.5" xlink:href="#path-1"></use>
        </g>
    </g>
</svg>