<?xml version="1.0" encoding="UTF-8"?>
<svg width="170px" height="240px" viewBox="0 0 170 240" version="1.1" xmlns="http://www.w3.org/2000/svg" xmlns:xlink="http://www.w3.org/1999/xlink">
    <!-- Generator: Sketch 50.2 (55047) - http://www.bohemiancoding.com/sketch -->
    <title>security-lock</title>
    <desc>Created with Sketch.</desc>
    <defs></defs>
    <g id="security-lock" stroke="none" stroke-width="1" fill="none" fill-rule="evenodd">
        <g>
            <path d="M39.5696795,65.2418723 C39.5696795,40.8674043 59.3953846,21.0323064 83.7664103,21.0323064 L85.4021154,21.0323064 C109.774231,21.0323064 129.604295,40.8674043 129.604295,65.2418723 L129.604295,97.4978723 L150.643974,97.4978723 L150.643974,65.2418723 C150.643974,29.2580766 121.383269,0 85.4021154,0 L83.7664103,0 C47.7961538,0 18.525641,29.2580766 18.525641,65.2418723 L18.525641,97.4978723 L39.5696795,97.4978723 L39.5696795,65.2418723 Z" id="Fill-4" fill="#02427E"></path>
            <path d="M169.973846,229.056817 C169.973846,234.82063 165.254167,239.54846 159.477436,239.54846 L10.4920513,239.54846 C4.71967949,239.54846 0,234.82063 0,229.056817 L0,106.35874 C0,100.572051 4.71967949,95.8638298 10.4920513,95.8638298 L159.477436,95.8638298 C165.254167,95.8638298 169.973846,100.572051 169.973846,106.35874 L169.973846,229.056817" id="Fill-3" fill="#9DCDFA"></path>
            <path d="M108.004487,154.202417 C108.004487,141.232477 97.4982692,130.723404 84.5194231,130.723404 C71.531859,130.723404 61.025641,141.232477 61.025641,154.202417 C61.025641,164.336749 67.4649359,172.883881 76.4542308,176.183557 L76.4542308,207.510332 L92.5802564,207.510332 L92.5802564,176.183557 C101.569551,172.883881 108.004487,164.336749 108.004487,154.202417" id="Fill-8" fill="#02427E"></path>
        </g>
    </g>
</svg>