<?xml version="1.0" encoding="utf-8"?>
<!-- Generator: Adobe Illustrator 19.2.1, SVG Export Plug-In . SVG Version: 6.00 Build 0)  -->
<svg version="1.1" id="Layer_1" xmlns="http://www.w3.org/2000/svg" xmlns:xlink="http://www.w3.org/1999/xlink" x="0px" y="0px"
	 viewBox="0 0 54 54" style="enable-background:new 0 0 54 54;" xml:space="preserve">
<style type="text/css">
	.st0{opacity:0.6;fill:#FFFFFF;}
	.st1{fill:none;stroke:#FFFFFF;stroke-width:1.75;stroke-linecap:round;stroke-linejoin:round;stroke-miterlimit:10;}
	.st2{fill:#FFFFFF;}
	.st3{fill:none;}
</style>
<g id="XMLID_717_">
	<g id="XMLID_681_">
		<path id="XMLID_691_" class="st0" d="M27.1,32.2v7.3h0c8,0,14.5-2.4,14.5-5.1c0-2.6,0-7.6,0-7.6L27.1,32.2z"/>
		<path id="XMLID_690_" class="st1" d="M12.5,28.1c0,0,0,3.6,0,6.2c0,2.8,6.5,5.2,14.5,5.2s14.5-2.4,14.5-5.1c0-2.6,0-7.6,0-7.6"/>
		<polygon id="XMLID_689_" class="st0" points="15,18.4 39.9,27.8 52.5,23 27,14.1 		"/>
		<polygon id="XMLID_688_" class="st1" points="27,32.2 1.5,23 27,14.8 52.5,23 		"/>
		<ellipse id="XMLID_687_" class="st2" cx="26.8" cy="22.7" rx="2" ry="1.2"/>
		<circle id="XMLID_686_" class="st1" cx="16.3" cy="42.3" r="1.5"/>
		<polyline id="XMLID_685_" class="st1" points="26.6,23 16.3,28.2 16.3,40 		"/>
		<line id="XMLID_684_" class="st1" x1="16.3" y1="44" x2="16.3" y2="47.9"/>
		<line id="XMLID_683_" class="st1" x1="16.5" y1="44.1" x2="19.2" y2="47.2"/>
		<line id="XMLID_682_" class="st1" x1="16" y1="44.1" x2="13.3" y2="47.2"/>
	</g>
	<rect id="XMLID_655_" class="st3" width="54" height="54"/>
</g>
</svg>
