<svg id="_artboard" xmlns="http://www.w3.org/2000/svg" viewBox="0 0 90 90"><title>Personalized_recc</title><circle cx="83.55" cy="35.62" r="2.3" style="fill:#fcd0dd"/><circle cx="77.28" cy="45.76" r="1.15" style="fill:#fcd0dd"/><circle cx="43.54" cy="71.24" r="1.15" style="fill:#fcd0dd"/><circle cx="79.25" cy="73.39" r="1.15" style="fill:#fcd0dd"/><circle cx="66.66" cy="23.61" r="1.15" style="fill:#fcd0dd"/><circle cx="77.42" cy="62.77" r="1.67" style="fill:#fcd0dd"/><path d="M53.29,73.75a1.13,1.13,0,0,1-1.12-1.12V69.21a1.13,1.13,0,0,1,2.25,0v3.42A1.13,1.13,0,0,1,53.29,73.75Z" style="fill:#474647"/><path d="M55,72H51.58a1.13,1.13,0,0,1,0-2.25H55A1.13,1.13,0,0,1,55,72Z" style="fill:#474647"/><path d="M72.34,33.08a1.13,1.13,0,0,1-.8-1.92L74,28.74a1.12,1.12,0,0,1,1.59,1.59l-2.42,2.42A1.12,1.12,0,0,1,72.34,33.08Z" style="fill:#474647"/><path d="M74.76,33.08a1.12,1.12,0,0,1-.8-0.33l-2.42-2.42a1.12,1.12,0,0,1,1.59-1.59l2.42,2.42A1.13,1.13,0,0,1,74.76,33.08Z" style="fill:#474647"/><path d="M84.34,54.85a1.13,1.13,0,0,1-.8-1.92L86,50.51a1.12,1.12,0,0,1,1.59,1.59l-2.42,2.42A1.12,1.12,0,0,1,84.34,54.85Z" style="fill:#474647"/><path d="M86.76,54.85a1.12,1.12,0,0,1-.8-0.33L83.54,52.1a1.12,1.12,0,0,1,1.59-1.59l2.42,2.42A1.13,1.13,0,0,1,86.76,54.85Z" style="fill:#474647"/><rect x="1.47" y="26.28" width="43.7" height="5.68" style="fill:#ff6e50"/><rect x="30.2" y="36.52" width="9.95" height="6.67" rx="1.57" ry="1.57" style="fill:#ff6e50"/><path d="M40.54,49.05H6.11c-4.06,0-5.64-1.58-5.64-5.64V23.91c0-4.06,1.58-5.64,5.64-5.64H40.54c4.06,0,5.64,1.58,5.64,5.64V43.42C46.18,47.47,44.6,49.05,40.54,49.05ZM6.11,20.27c-3,0-3.64.68-3.64,3.64V43.42c0,3,.68,3.64,3.64,3.64H40.54c3,0,3.64-.68,3.64-3.64V23.91c0-3-.68-3.64-3.64-3.64H6.11Z" style="fill:#474647"/><rect x="27.64" y="35.84" width="43.7" height="28.78" rx="4.64" ry="4.64" style="fill:#feca05"/><rect x="27.64" y="42.85" width="43.7" height="5.68" style="fill:#fff"/><rect x="56.37" y="53.09" width="9.95" height="6.67" rx="1.57" ry="1.57" style="fill:#fff"/><path d="M66.71,65.62H32.28c-4.06,0-5.64-1.58-5.64-5.64V40.48c0-4.06,1.58-5.64,5.64-5.64H66.71c4.06,0,5.64,1.58,5.64,5.64V60C72.34,64,70.76,65.62,66.71,65.62ZM32.28,36.84c-3,0-3.64.68-3.64,3.64V60c0,3,.68,3.64,3.64,3.64H66.71c3,0,3.64-.68,3.64-3.64V40.48c0-3-.68-3.64-3.64-3.64H32.28Z" style="fill:#474647"/><path d="M27.17,60.62h-1a1,1,0,0,1,0-2h1A1,1,0,0,1,27.17,60.62Zm-5,0h-1a1,1,0,0,1,0-2h1A1,1,0,0,1,22.17,60.62Zm-4.85-.94a1,1,0,0,1-.47-0.12,8.26,8.26,0,0,1-1-.61,1,1,0,0,1,1.18-1.61,6.34,6.34,0,0,0,.73.46A1,1,0,0,1,17.32,59.68ZM14.05,56a1,1,0,0,1-.93-0.63,8.64,8.64,0,0,1-.35-1.07,1,1,0,0,1,1.94-.5,6.71,6.71,0,0,0,.27.82A1,1,0,0,1,14.05,56ZM13.47,51.1a1,1,0,0,1-1-1v-1a1,1,0,0,1,2,0v1A1,1,0,0,1,13.47,51.1Z" style="fill:#474647"/><path d="M61.22,35.28a1,1,0,0,1-1-1v-1a1,1,0,0,1,2,0v1A1,1,0,0,1,61.22,35.28Zm-0.27-5a1,1,0,0,1-1-.75,6.71,6.71,0,0,0-.27-0.82A1,1,0,1,1,61.57,28a8.64,8.64,0,0,1,.35,1.07A1,1,0,0,1,61,30.31Zm-2.73-4.07A1,1,0,0,1,57.63,26a6.35,6.35,0,0,0-.73-0.46,1,1,0,1,1,1-1.76,8.3,8.3,0,0,1,1,.61A1,1,0,0,1,58.22,26.24Zm-4.69-1.47h-1a1,1,0,0,1,0-2h1A1,1,0,0,1,53.53,24.77Zm-5,0h-1a1,1,0,0,1,0-2h1A1,1,0,0,1,48.53,24.77Z" style="fill:#474647"/><circle cx="65.2" cy="73.39" r="2.5" style="fill:#fcd0dd"/></svg>