<?xml version="1.0" encoding="utf-8"?>
<!-- Generator: Adobe Illustrator 19.0.0, SVG Export Plug-In . SVG Version: 6.00 Build 0)  -->
<!DOCTYPE svg PUBLIC "-//W3C//DTD SVG 1.1//EN" "http://www.w3.org/Graphics/SVG/1.1/DTD/svg11.dtd">
<svg version="1.1" id="Layer_1" xmlns="http://www.w3.org/2000/svg" xmlns:xlink="http://www.w3.org/1999/xlink" x="0px" y="0px"
	 viewBox="0 0 54 54" style="enable-background:new 0 0 54 54;" xml:space="preserve">
<style type="text/css">
	.st0{fill:#00AACA;}
	.st1{opacity:0.6;fill:#FFFFFF;}
	.st2{fill:none;stroke:#FFFFFF;stroke-width:1.75;stroke-linecap:round;stroke-linejoin:round;}
	.st3{fill:none;stroke:#FFFFFF;stroke-width:1.5;stroke-linecap:round;stroke-linejoin:round;}
	.st4{fill:none;}
</style>
<g id="XMLID_549_">
	<g id="XMLID_551_">
		<path id="XMLID_561_" class="st0" d="M12.6,31.3c-0.3-0.5-0.6-1-0.8-1.6l-1.5-5.3c-0.1-0.6-0.2-1.2-0.1-1.8l0.7-5.4
			C9,22.9,10.2,29,14.1,33.5L12.6,31.3z"/>
		<g id="XMLID_1_">
			<path id="XMLID_23_" class="st1" d="M14.7,11c0,0-0.1,0.1-0.1,0.1C14.7,11,14.7,11,14.7,11z"/>
			<path id="XMLID_25_" class="st1" d="M13.5,12.4c0.1-0.2,0.3-0.3,0.4-0.5C13.7,12.1,13.6,12.3,13.5,12.4z"/>
			<path id="XMLID_29_" class="st1" d="M42.8,23.3c0.3-0.5,0.4-1,0.3-1.6L41,14.4c-0.2-0.5-0.6-1-1.1-1.2l-5.5-2.6
				c-0.5-0.2-1-0.1-1.3,0.3l-5,7.3c-0.3,0.4-0.2,1,0.2,1.4L33,24c0.4,0.4,0.6,1,0.5,1.5l-1.1,6.7c-0.1,0.5,0.3,0.9,0.7,1l1.5,0.2
				c0.5,0.1,1.1-0.2,1.4-0.6L42.8,23.3z"/>
			<path id="XMLID_30_" class="st1" d="M17.7,36.6c0,0,0.1,0,0.1,0.1C17.7,36.6,17.7,36.6,17.7,36.6z"/>
			<path id="XMLID_31_" class="st1" d="M16.7,35.9c-0.2-0.1-0.3-0.3-0.5-0.4C16.4,35.7,16.6,35.8,16.7,35.9z"/>
			<path id="XMLID_32_" class="st1" d="M16.2,35.1l3.8-6.1c0,0,0,0,0-0.1c0.3-0.4,0.1-1-0.3-1.2L15.6,25c-0.1,0-0.2-0.2-0.3-0.3
				c-0.1-0.2,0-0.5,0.3-0.6l4.1-2c0.5-0.2,0.7-0.8,0.5-1.2l-1.9-5c-0.2-0.5-0.6-0.9-1.1-1.2l-1.1-0.5c-0.4-0.2-0.7-0.8-0.5-1.2
				l0.3-1.2c0.1-0.5-0.1-0.6-0.5-0.3l-2,1.4c-3.7,5.1-4.4,12.1-1.2,17.9c1,1.9,2.4,3.4,3.9,4.7C16.1,35.3,16.2,35.2,16.2,35.1z"/>
		</g>
		<path id="XMLID_557_" class="st2" d="M36.8,40C26.3,45.2,13,41.1,8.3,30.8c-4.3-9.5,0-20.5,9-26"/>
		<circle id="XMLID_556_" class="st2" cx="26.7" cy="22.5" r="16.6"/>
		<line id="XMLID_555_" class="st2" x1="26.7" y1="42.6" x2="26.7" y2="46.7"/>
		<path id="XMLID_554_" class="st2" d="M32.8,51.2c-1.1-3.4-4.8-5.3-8.2-4.2c-2,0.6-3.6,2.2-4.2,4.2H32.8z"/>
		<line id="XMLID_553_" class="st3" x1="35.8" y1="37" x2="38.2" y2="41.3"/>
		<line id="XMLID_552_" class="st2" x1="16.8" y1="2.8" x2="19.1" y2="6.9"/>
	</g>
	<rect id="XMLID_550_" class="st4" width="54" height="54"/>
</g>
</svg>
