<?xml version="1.0" encoding="utf-8"?>
<!-- Generator: Adobe Illustrator 19.0.0, SVG Export Plug-In . SVG Version: 6.00 Build 0)  -->
<!DOCTYPE svg PUBLIC "-//W3C//DTD SVG 1.1//EN" "http://www.w3.org/Graphics/SVG/1.1/DTD/svg11.dtd">
<svg version="1.1" id="Layer_1" xmlns="http://www.w3.org/2000/svg" xmlns:xlink="http://www.w3.org/1999/xlink" x="0px" y="0px"
	 viewBox="0 0 54 54" style="enable-background:new 0 0 54 54;" xml:space="preserve">
<style type="text/css">
	.st0{fill:#00AACA;}
	.st1{fill:none;stroke:#464646;stroke-width:1.75;stroke-linecap:round;stroke-linejoin:round;}
	.st2{fill:none;stroke:#464646;stroke-width:1.5;stroke-linecap:round;stroke-linejoin:round;}
	.st3{fill:none;}
</style>
<g id="XMLID_521_">
	<g id="XMLID_12_">
		<path id="XMLID_22_" class="st0" d="M12.6,31.3c-0.3-0.5-0.6-1-0.8-1.6l-1.5-5.3c-0.1-0.6-0.2-1.2-0.1-1.8l0.7-5.4
			C9,22.9,10.2,29,14.1,33.5L12.6,31.3z"/>
		<path id="XMLID_19_" class="st0" d="M41.2,14.5c-4.4-8-14.5-11-22.6-6.6c-2.1,1.2-4,2.8-5.4,4.8l2.1-1.5c0.4-0.3,0.6-0.1,0.5,0.4
			l-0.3,1.2c-0.1,0.5,0.1,1,0.5,1.2l1.1,0.5c0.5,0.3,0.9,0.7,1.1,1.2l1.9,5c0.2,0.5,0,1-0.5,1.2l-4.1,2c-0.2,0.1-0.4,0.4-0.3,0.6
			c0,0.1,0.2,0.2,0.3,0.3l4.2,2.7c0.4,0.3,0.6,0.8,0.3,1.2c0,0,0,0,0,0.1l-3.8,6.1c-0.1,0.1-0.1,0.2-0.2,0.2c7,5.9,17.5,5,23.4-2
			C43.9,28,44.6,20.5,41.2,14.5z M36.1,32.9c-0.3,0.4-0.9,0.6-1.4,0.6l-1.5-0.2c-0.5-0.1-0.8-0.5-0.7-1l1.1-6.7
			c0.1-0.6-0.1-1.1-0.5-1.5l-4.7-4.4c-0.4-0.4-0.4-0.9-0.1-1.4l5-7.3c0.3-0.4,0.8-0.6,1.3-0.4l5.5,2.6c0.5,0.3,0.9,0.7,1.1,1.2
			l2.1,7.3c0.1,0.5,0,1.1-0.3,1.6L36.1,32.9z"/>
		<path id="XMLID_18_" class="st1" d="M36.8,40C26.3,45.2,13,41.1,8.3,30.8c-4.3-9.5,0-20.5,9-26"/>
		<circle id="XMLID_17_" class="st1" cx="26.7" cy="22.5" r="16.6"/>
		<line id="XMLID_16_" class="st1" x1="26.7" y1="42.6" x2="26.7" y2="46.7"/>
		<path id="XMLID_15_" class="st1" d="M32.8,51.2c-1.1-3.4-4.8-5.3-8.2-4.2c-2,0.6-3.6,2.2-4.2,4.2H32.8z"/>
		<line id="XMLID_14_" class="st2" x1="35.8" y1="37" x2="38.2" y2="41.3"/>
		<line id="XMLID_13_" class="st1" x1="16.8" y1="2.8" x2="19.1" y2="6.9"/>
	</g>
	<rect id="XMLID_411_" class="st3" width="54" height="54"/>
</g>
</svg>
